<svg width="44" height="44" viewBox="0 0 44 44" fill="none" xmlns="http://www.w3.org/2000/svg">
<path d="M18.0987 31.5423H27.038C27.6467 34.197 29.9768 36.2082 32.8112 36.2082C35.6437 36.2082 37.9757 34.1952 38.5825 31.5387C38.9321 31.5177 39.2604 31.3641 39.5006 31.1092C39.7408 30.8544 39.8747 30.5175 39.875 30.1673V20.8338C39.8752 20.4749 39.7351 20.1302 39.4845 19.8732L34.8737 15.1468C34.4042 14.6654 33.8431 14.2827 33.2234 14.0214C32.6038 13.7601 31.9382 13.6254 31.2657 13.6252H28.4973V10.9998C28.4973 10.1489 28.1593 9.33288 27.5576 8.7312C26.956 8.12952 26.1399 7.7915 25.289 7.7915H7.33333C6.48243 7.7915 5.66638 8.12952 5.0647 8.7312C4.46302 9.33288 4.125 10.1489 4.125 10.9998V30.1673C4.125 30.9263 4.741 31.5423 5.5 31.5423H6.556C7.16467 34.197 9.49483 36.2082 12.3273 36.2082C15.1598 36.2082 17.4918 34.1988 18.0987 31.5423ZM9.152 30.1655C9.152 28.3138 10.6058 26.8728 12.3273 26.8728C14.0507 26.8728 15.5045 28.3138 15.5045 30.1637C15.5045 32.0153 14.0507 33.4563 12.3273 33.4563C10.604 33.4563 9.15017 32.0153 9.15017 30.1637M29.6322 30.1637C29.6322 28.312 31.086 26.871 32.8093 26.871C34.5308 26.871 35.9847 28.312 35.9847 30.1618C35.9847 32.0135 34.5308 33.4545 32.8093 33.4545C31.086 33.4545 29.6322 32.0153 29.6322 30.1637ZM17.6898 14.6665V16.9582H19.9815C20.3462 16.9582 20.6959 17.103 20.9538 17.3609C21.2116 17.6188 21.3565 17.9685 21.3565 18.3332C21.3565 18.6978 21.2116 19.0476 20.9538 19.3054C20.6959 19.5633 20.3462 19.7082 19.9815 19.7082H17.6917V21.9998C17.6917 22.3645 17.5468 22.7142 17.2889 22.9721C17.0311 23.23 16.6813 23.3748 16.3167 23.3748C15.952 23.3748 15.6023 23.23 15.3444 22.9721C15.0865 22.7142 14.9417 22.3645 14.9417 21.9998V19.7082H12.65C12.2853 19.7082 11.9356 19.5633 11.6777 19.3054C11.4199 19.0476 11.275 18.6978 11.275 18.3332C11.275 17.9685 11.4199 17.6188 11.6777 17.3609C11.9356 17.103 12.2853 16.9582 12.65 16.9582H14.9417V14.6665C14.9417 14.3018 15.0865 13.9521 15.3444 13.6942C15.6023 13.4364 15.952 13.2915 16.3167 13.2915C16.6813 13.2915 17.0311 13.4364 17.2889 13.6942C17.5468 13.9521 17.6898 14.3018 17.6898 14.6665Z" fill="#FBC02D"/>
</svg>
