<svg width="33" height="44" viewBox="0 0 33 44" fill="none" xmlns="http://www.w3.org/2000/svg">
<path d="M30.0864 12.1817C30.0827 12.0635 30.0483 11.9482 29.9865 11.8473C29.9247 11.7463 29.8378 11.6632 29.7341 11.6061C29.6305 11.5489 29.5138 11.5197 29.3955 11.5213C29.2772 11.5229 29.1613 11.5553 29.0593 11.6152C28.1353 12.1542 26.6971 12.85 25.4252 12.85C24.8477 12.8518 24.2569 12.7611 23.6528 12.5777C23.2727 12.463 22.9014 12.321 22.5418 12.1529C20.7021 11.2742 19.0122 9.72324 17.4598 8.18049C17.2044 7.92713 16.8598 7.78398 16.5001 7.78174C16.1403 7.78398 15.7957 7.92713 15.5403 8.18049C13.9879 9.72324 12.2981 11.2742 10.4583 12.1529C10.0991 12.321 9.72691 12.463 9.3473 12.5777C8.7423 12.7611 8.15151 12.8518 7.57493 12.85C6.30305 12.85 4.8648 12.1529 3.9408 11.6152C3.83878 11.5553 3.72292 11.5229 3.6046 11.5213C3.48628 11.5197 3.36958 11.5489 3.26597 11.6061C3.16235 11.6632 3.07539 11.7463 3.01362 11.8473C2.95186 11.9482 2.91742 12.0635 2.91368 12.1817C2.8298 14.2965 2.8078 18.8367 3.85968 22.4172C5.7833 28.9664 10.0197 33.3842 16.1109 35.1937L16.3034 35.2501L16.4959 35.2309H16.5001L16.6967 35.2501L16.8892 35.1937C22.9804 33.3842 27.2168 28.9664 29.1404 22.4172C30.1923 18.8367 30.1689 14.2965 30.0864 12.1817Z" fill="#FBC02D"/>
</svg>
