<svg width="24" height="25" viewBox="0 0 24 25" fill="none" xmlns="http://www.w3.org/2000/svg">
<path d="M10.83 7.11C13.068 4.587 16.55 3.5 19.75 3.5C19.9489 3.5 20.1397 3.57902 20.2803 3.71967C20.421 3.86032 20.5 4.05109 20.5 4.25C20.5 7.45 19.413 10.932 16.89 13.17C16.829 14.186 16.515 15.203 16.066 16.096C15.566 17.09 14.871 17.983 14.093 18.574C13.332 19.152 12.348 19.537 11.376 19.175C10.456 18.832 9.836 17.925 9.476 16.637L7.363 14.523C6.075 14.164 5.168 13.544 4.825 12.624C4.463 11.652 4.848 10.668 5.426 9.907C6.017 9.129 6.91 8.434 7.904 7.934C8.797 7.485 9.814 7.171 10.829 7.111M9.5 8.892C9.18394 8.99756 8.87583 9.12555 8.578 9.275C7.742 9.696 7.045 10.257 6.621 10.815C6.184 11.391 6.128 11.825 6.231 12.101C6.314 12.327 6.583 12.658 7.325 12.937C7.494 12.558 7.737 12.034 8.042 11.433C8.43 10.67 8.924 9.772 9.5 8.892ZM11.064 16.677C11.342 17.419 11.674 17.687 11.9 17.772C12.175 17.874 12.61 17.818 13.186 17.382C13.744 16.957 14.305 16.26 14.726 15.424C14.8773 15.1233 15.005 14.816 15.109 14.502C14.2893 15.0336 13.4414 15.5203 12.569 15.96C11.967 16.265 11.443 16.508 11.064 16.677ZM5.035 16.005C5.43809 15.6683 5.95076 15.4912 6.47574 15.5075C7.00071 15.5237 7.50147 15.732 7.883 16.093L7.892 16.103C8.691 16.893 8.678 18.157 7.995 18.968C7.7 19.32 7.297 19.574 6.918 19.76C6.531 19.95 6.114 20.093 5.743 20.2C5.29701 20.3269 4.84343 20.4254 4.385 20.495L4.361 20.498L4.353 20.499H4.35C4.23578 20.5143 4.11957 20.5031 4.01039 20.4662C3.90122 20.4293 3.80201 20.3677 3.72047 20.2863C3.63894 20.2048 3.57726 20.1057 3.54024 19.9966C3.50322 19.8874 3.49185 19.7712 3.507 19.657V19.654L3.508 19.646L3.512 19.622C3.53034 19.4917 3.55235 19.362 3.578 19.233C3.625 18.982 3.699 18.637 3.806 18.262C3.91819 17.8574 4.06507 17.4633 4.245 17.084C4.43 16.704 4.684 16.302 5.035 16.005ZM15.687 8.22C15.5464 8.07955 15.3558 8.00066 15.157 8.00066C14.9583 8.00066 14.7676 8.07955 14.627 8.22L13.92 8.927C13.7875 9.06917 13.7154 9.25722 13.7188 9.45152C13.7223 9.64582 13.801 9.83121 13.9384 9.96862C14.0758 10.106 14.2612 10.1847 14.4555 10.1882C14.6498 10.1916 14.8378 10.1195 14.98 9.987L15.687 9.28C15.8275 9.13937 15.9063 8.94875 15.9063 8.75C15.9063 8.55125 15.8275 8.36063 15.687 8.22Z" fill="white"/>
</svg>
