<svg width="33" height="44" viewBox="0 0 33 44" fill="none" xmlns="http://www.w3.org/2000/svg">
<g clip-path="url(#clip0_0_77)">
<path d="M7.33333 11.625C7.33333 9.62559 8.9776 8 11 8H22C24.0224 8 25.6667 9.62559 25.6667 11.625V15.25H29.3333C31.3557 15.25 33 16.8756 33 18.875V33.375C33 35.3744 31.3557 37 29.3333 37H3.66667C1.64427 37 0 35.3744 0 33.375V18.875C0 16.8756 1.64427 15.25 3.66667 15.25H7.33333V11.625ZM15.5833 27.9375C14.5693 27.9375 13.75 28.7475 13.75 29.75V34.2812H19.25V29.75C19.25 28.7475 18.4307 27.9375 17.4167 27.9375H15.5833ZM7.33333 28.8438V27.0312C7.33333 26.5328 6.92083 26.125 6.41667 26.125H4.58333C4.07917 26.125 3.66667 26.5328 3.66667 27.0312V28.8438C3.66667 29.3422 4.07917 29.75 4.58333 29.75H6.41667C6.92083 29.75 7.33333 29.3422 7.33333 28.8438ZM6.41667 22.5C6.92083 22.5 7.33333 22.0922 7.33333 21.5938V19.7812C7.33333 19.2828 6.92083 18.875 6.41667 18.875H4.58333C4.07917 18.875 3.66667 19.2828 3.66667 19.7812V21.5938C3.66667 22.0922 4.07917 22.5 4.58333 22.5H6.41667ZM29.3333 28.8438V27.0312C29.3333 26.5328 28.9208 26.125 28.4167 26.125H26.5833C26.0792 26.125 25.6667 26.5328 25.6667 27.0312V28.8438C25.6667 29.3422 26.0792 29.75 26.5833 29.75H28.4167C28.9208 29.75 29.3333 29.3422 29.3333 28.8438ZM28.4167 22.5C28.9208 22.5 29.3333 22.0922 29.3333 21.5938V19.7812C29.3333 19.2828 28.9208 18.875 28.4167 18.875H26.5833C26.0792 18.875 25.6667 19.2828 25.6667 19.7812V21.5938C25.6667 22.0922 26.0792 22.5 26.5833 22.5H28.4167ZM15.125 13.8906V15.7031H13.2917C12.7875 15.7031 12.375 16.1109 12.375 16.6094V17.5156C12.375 18.0141 12.7875 18.4219 13.2917 18.4219H15.125V20.2344C15.125 20.7328 15.5375 21.1406 16.0417 21.1406H16.9583C17.4625 21.1406 17.875 20.7328 17.875 20.2344V18.4219H19.7083C20.2125 18.4219 20.625 18.0141 20.625 17.5156V16.6094C20.625 16.1109 20.2125 15.7031 19.7083 15.7031H17.875V13.8906C17.875 13.3922 17.4625 12.9844 16.9583 12.9844H16.0417C15.5375 12.9844 15.125 13.3922 15.125 13.8906Z" fill="#FBC02D"/>
</g>
<defs>
<clipPath id="clip0_0_77">
<rect width="33" height="29" fill="white" transform="translate(0 8)"/>
</clipPath>
</defs>
</svg>
