<svg width="33" height="45" viewBox="0 0 33 45" fill="none" xmlns="http://www.w3.org/2000/svg">
<g clip-path="url(#clip0_0_65)">
<path d="M33 26.1818C33 26.8636 32.7594 27.4432 32.2781 27.9205C31.7969 28.3977 31.2125 28.6364 30.525 28.6364C29.6484 28.6364 28.9609 28.2699 28.4625 27.5369L22.6102 18.8182H21.45V22.1932L27.818 32.7017C27.9727 32.9574 28.05 33.2386 28.05 33.5455C28.05 33.9886 27.8867 34.3722 27.5602 34.696C27.2336 35.0199 26.8469 35.1818 26.4 35.1818H21.45V42.1364C21.45 42.9205 21.1664 43.5938 20.5992 44.1562C20.032 44.7188 19.3531 45 18.5625 45H14.4375C13.6469 45 12.968 44.7188 12.4008 44.1562C11.8336 43.5938 11.55 42.9205 11.55 42.1364V35.1818H6.6C6.15312 35.1818 5.76641 35.0199 5.43984 34.696C5.11328 34.3722 4.95 33.9886 4.95 33.5455C4.95 33.2386 5.02734 32.9574 5.18203 32.7017L11.55 22.1932V18.8182H10.3898L4.5375 27.5369C4.03906 28.2699 3.35156 28.6364 2.475 28.6364C1.7875 28.6364 1.20312 28.3977 0.721875 27.9205C0.240625 27.4432 0 26.8636 0 26.1818C0 25.6875 0.1375 25.2358 0.4125 24.8267L7.0125 15.0085C8.26719 13.1847 9.77969 12.2727 11.55 12.2727H21.45C23.2203 12.2727 24.7328 13.1847 25.9875 15.0085L32.5875 24.8267C32.8625 25.2358 33 25.6875 33 26.1818ZM22.275 5.72727C22.275 7.3125 21.7121 8.66335 20.5863 9.77983C19.4605 10.8963 18.0984 11.4545 16.5 11.4545C14.9016 11.4545 13.5395 10.8963 12.4137 9.77983C11.2879 8.66335 10.725 7.3125 10.725 5.72727C10.725 4.14205 11.2879 2.79119 12.4137 1.67472C13.5395 0.558239 14.9016 0 16.5 0C18.0984 0 19.4605 0.558239 20.5863 1.67472C21.7121 2.79119 22.275 4.14205 22.275 5.72727Z" fill="#FBC02D"/>
</g>
<defs>
<clipPath id="clip0_0_65">
<rect width="33" height="45" fill="white"/>
</clipPath>
</defs>
</svg>
