<svg width="22" height="28" viewBox="0 0 22 28" fill="none" xmlns="http://www.w3.org/2000/svg">
<path d="M9.66692 10C9.66692 9.6464 9.80739 9.30726 10.0574 9.05721C10.3075 8.80716 10.6466 8.66669 11.0002 8.66669C11.3539 8.66669 11.693 8.80716 11.9431 9.05721C12.1931 9.30726 12.3336 9.6464 12.3336 10C12.3336 10.3536 12.1931 10.6928 11.9431 10.9428C11.693 11.1929 11.3539 11.3334 11.0002 11.3334C10.6466 11.3334 10.3075 11.1929 10.0574 10.9428C9.80739 10.6928 9.66692 10.3536 9.66692 10Z" fill="#0056A3"/>
<path fill-rule="evenodd" clip-rule="evenodd" d="M8.19466 2.06801C8.52912 1.6441 8.95531 1.30149 9.44119 1.06594C9.92708 0.830382 10.46 0.708008 11 0.708008C11.54 0.708008 12.0729 0.830382 12.5588 1.06594C13.0447 1.30149 13.4709 1.6441 13.8053 2.06801C14.0013 2.31601 14.312 2.44401 14.6253 2.40801C15.1616 2.34467 15.7052 2.40367 16.2154 2.5806C16.7255 2.75753 17.189 3.04777 17.5708 3.42952C17.9527 3.81127 18.2431 4.27461 18.4202 4.78471C18.5973 5.29481 18.6565 5.83842 18.5933 6.37468C18.5748 6.52892 18.5962 6.68534 18.6555 6.82893C18.7148 6.97252 18.81 7.09846 18.932 7.19468C19.3559 7.52914 19.6985 7.95532 19.9341 8.44121C20.1696 8.92709 20.292 9.46004 20.292 10C20.292 10.54 20.1696 11.0729 19.9341 11.5588C19.6985 12.0447 19.3559 12.4709 18.932 12.8053C18.81 12.9016 18.7148 13.0275 18.6555 13.1711C18.5962 13.3147 18.5748 13.4711 18.5933 13.6253C18.6567 14.1617 18.5977 14.7055 18.4207 15.2157C18.2437 15.726 17.9533 16.1895 17.5714 16.5714C17.1895 16.9533 16.726 17.2437 16.2157 17.4207C15.7055 17.5977 15.1617 17.6567 14.6253 17.5933C14.4711 17.5748 14.3147 17.5962 14.1711 17.6555C14.0275 17.7148 13.9015 17.81 13.8053 17.932C13.4706 18.3555 13.0443 18.6977 12.5584 18.9329C12.0726 19.1682 11.5398 19.2904 11 19.2904C10.4602 19.2904 9.92739 19.1682 9.44155 18.9329C8.9557 18.6977 8.52942 18.3555 8.19466 17.932C8.09872 17.81 7.97306 17.7147 7.82972 17.6551C7.68637 17.5956 7.53015 17.5739 7.376 17.592C6.83976 17.6554 6.29613 17.5964 5.78597 17.4194C5.27581 17.2425 4.81238 16.9523 4.43049 16.5705C4.04861 16.1888 3.75822 15.7254 3.58112 15.2153C3.40402 14.7052 3.34483 14.1616 3.408 13.6253C3.42638 13.471 3.40476 13.3145 3.34522 13.1709C3.28568 13.0273 3.19021 12.9014 3.068 12.8053C2.64408 12.4709 2.30147 12.0447 2.06592 11.5588C1.83037 11.0729 1.70799 10.54 1.70799 10C1.70799 9.46004 1.83037 8.92709 2.06592 8.44121C2.30147 7.95532 2.64408 7.52914 3.068 7.19468C3.19021 7.09861 3.28568 6.97273 3.34522 6.82914C3.40476 6.68554 3.42638 6.52904 3.408 6.37468C3.34483 5.83842 3.40402 5.29481 3.58112 4.78471C3.75822 4.27461 4.04861 3.81127 4.43049 3.42952C4.81238 3.04777 5.27581 2.75753 5.78597 2.5806C6.29613 2.40367 6.83976 2.34467 7.376 2.40801C7.53015 2.42616 7.68637 2.40442 7.82972 2.34489C7.97306 2.28536 8.09872 2.19002 8.19466 2.06801ZM11 6.00001C9.93913 6.00001 8.92172 6.42144 8.17157 7.17159C7.42143 7.92173 7 8.93915 7 10C7 11.0609 7.42143 12.0783 8.17157 12.8284C8.92172 13.5786 9.93913 14 11 14C12.0609 14 13.0783 13.5786 13.8284 12.8284C14.5786 12.0783 15 11.0609 15 10C15 8.93915 14.5786 7.92173 13.8284 7.17159C13.0783 6.42144 12.0609 6.00001 11 6.00001Z" fill="#0056A3"/>
<path d="M2.19333 18.0733L0.426664 23.3333C0.347796 23.5683 0.335969 23.8205 0.392509 24.0618C0.44905 24.3031 0.57172 24.5239 0.746753 24.6993C0.921786 24.8748 1.14225 24.998 1.38341 25.0551C1.62457 25.1122 1.87687 25.101 2.112 25.0227L4.712 24.156L6.23733 26.432C6.37521 26.6368 6.56727 26.7994 6.79209 26.9015C7.01691 27.0036 7.26567 27.0412 7.51064 27.0103C7.75561 26.9793 7.98717 26.8809 8.17952 26.7261C8.37186 26.5712 8.51743 26.366 8.6 26.1333L10.0933 21.8933C8.83678 21.7132 7.66607 21.1509 6.74 20.2827C5.86967 20.2531 5.01521 20.0413 4.23182 19.661C3.44843 19.2807 2.75353 18.7403 2.192 18.0747L2.19333 18.0733ZM11.8853 21.896L13.3787 26.132C13.4611 26.365 13.6066 26.5706 13.7991 26.7256C13.9916 26.8807 14.2234 26.9793 14.4686 27.0102C14.7138 27.0412 14.9628 27.0034 15.1878 26.9011C15.4128 26.7987 15.6049 26.6359 15.7427 26.4307L17.268 24.1547L19.868 25.0213C20.103 25.0995 20.3551 25.1107 20.5961 25.0536C20.8371 24.9965 21.0574 24.8735 21.2324 24.6982C21.4073 24.523 21.5301 24.3024 21.5867 24.0614C21.6434 23.8203 21.6319 23.5682 21.5533 23.3333L19.7933 18.0933C19.2317 18.7537 18.5384 19.2896 17.7578 19.6666C16.9772 20.0436 16.1264 20.2534 15.26 20.2827C14.3289 21.1555 13.1506 21.719 11.8867 21.896H11.8853Z" fill="#0056A3"/>
</svg>
