<svg width="45" height="51" viewBox="0 0 45 51" fill="none" xmlns="http://www.w3.org/2000/svg">
<path d="M22.9887 8.90158C22.8578 8.77641 22.6837 8.70654 22.5026 8.70654C22.3216 8.70654 22.1475 8.77641 22.0166 8.90158L5.83594 24.3589C5.76722 24.4246 5.71255 24.5036 5.67524 24.5911C5.63792 24.6786 5.61874 24.7727 5.61885 24.8678L5.61621 39.375C5.61621 40.1209 5.91253 40.8363 6.43997 41.3638C6.96742 41.8912 7.68279 42.1875 8.42871 42.1875H16.875C17.248 42.1875 17.6056 42.0394 17.8694 41.7756C18.1331 41.5119 18.2812 41.1542 18.2812 40.7813V28.8281C18.2812 28.6417 18.3553 28.4628 18.4872 28.331C18.6191 28.1991 18.7979 28.125 18.9844 28.125H26.0156C26.2021 28.125 26.3809 28.1991 26.5128 28.331C26.6447 28.4628 26.7187 28.6417 26.7187 28.8281V40.7813C26.7187 41.1542 26.8669 41.5119 27.1306 41.7756C27.3944 42.0394 27.752 42.1875 28.125 42.1875H36.5678C37.3137 42.1875 38.0291 41.8912 38.5565 41.3638C39.084 40.8363 39.3803 40.1209 39.3803 39.375V24.8678C39.3804 24.7727 39.3612 24.6786 39.3239 24.5911C39.2866 24.5036 39.2319 24.4246 39.1632 24.3589L22.9887 8.90158Z" fill="white"/>
<path d="M43.1464 21.4585L36.5722 15.169V5.625C36.5722 5.25204 36.424 4.89435 36.1603 4.63063C35.8966 4.36691 35.5389 4.21875 35.1659 4.21875H30.9472C30.5742 4.21875 30.2165 4.36691 29.9528 4.63063C29.6891 4.89435 29.5409 5.25204 29.5409 5.625V8.4375L24.4503 3.57012C23.9739 3.08848 23.2655 2.8125 22.5 2.8125C21.7371 2.8125 21.0305 3.08848 20.5541 3.571L1.85977 21.4567C1.31309 21.9841 1.24453 22.8516 1.74199 23.4229C1.86691 23.5671 2.01987 23.6843 2.19155 23.7675C2.36324 23.8507 2.55006 23.8982 2.74064 23.9069C2.93123 23.9156 3.1216 23.8854 3.30016 23.8182C3.47872 23.751 3.64174 23.6482 3.7793 23.516L22.0166 6.08906C22.1475 5.96389 22.3216 5.89403 22.5026 5.89403C22.6837 5.89403 22.8578 5.96389 22.9887 6.08906L41.2277 23.516C41.4964 23.7737 41.8563 23.9143 42.2285 23.907C42.6006 23.8998 42.9548 23.7453 43.2132 23.4773C43.7528 22.9184 43.708 21.9955 43.1464 21.4585Z" fill="white"/>
</svg>
