<svg width="21" height="16" viewBox="0 0 21 16" fill="none" xmlns="http://www.w3.org/2000/svg">
<path d="M20.0341 10.8714C20.1195 10.3757 20.1195 9.86939 20.0341 9.37364L20.8808 8.84975C20.9792 8.78998 21.0219 8.66692 20.9891 8.55089C20.7692 7.79144 20.3918 7.1023 19.8996 6.53271C19.8241 6.44481 19.7027 6.42372 19.6042 6.48349L18.7576 7.00737C18.3999 6.68039 17.9897 6.42723 17.5467 6.25847V5.2107C17.5467 5.09116 17.4679 4.98568 17.3596 4.96107C16.6278 4.78527 15.8829 4.7923 15.1872 4.96107C15.0789 4.98568 15.0002 5.09116 15.0002 5.2107V6.25847C14.5571 6.42723 14.1469 6.68039 13.7893 7.00737L12.9426 6.48349C12.8474 6.42372 12.7227 6.44481 12.6473 6.53271C12.155 7.1023 11.7776 7.79144 11.5578 8.55089C11.525 8.66692 11.5709 8.78998 11.6661 8.84975L12.5127 9.37364C12.4274 9.86939 12.4274 10.3757 12.5127 10.8714L11.6661 11.3953C11.5676 11.4551 11.525 11.5782 11.5578 11.6942C11.7776 12.4536 12.155 13.1393 12.6473 13.7124C12.7227 13.8003 12.8442 13.8214 12.9426 13.7616L13.7893 13.2377C14.1469 13.5647 14.5571 13.8179 15.0002 13.9866V15.0344C15.0002 15.1539 15.0789 15.2594 15.1872 15.284C15.919 15.4598 16.6639 15.4528 17.3596 15.284C17.4679 15.2594 17.5467 15.1539 17.5467 15.0344V13.9866C17.9897 13.8179 18.3999 13.5647 18.7576 13.2377L19.6042 13.7616C19.6994 13.8214 19.8241 13.8003 19.8996 13.7124C20.3918 13.1428 20.7692 12.4536 20.9891 11.6942C21.0219 11.5782 20.9759 11.4551 20.8808 11.3953L20.0341 10.8714ZM16.2767 11.8278C15.3972 11.8278 14.6851 11.0613 14.6851 10.1225C14.6851 9.18377 15.4005 8.41729 16.2767 8.41729C17.1529 8.41729 17.8683 9.18377 17.8683 10.1225C17.8683 11.0613 17.1562 11.8278 16.2767 11.8278ZM3.15033 6.74719C4.30873 6.74719 5.25055 5.7381 5.25055 4.49695C5.25055 3.25581 4.30873 2.24672 3.15033 2.24672C1.99193 2.24672 1.05011 3.25581 1.05011 4.49695C1.05011 5.7381 1.99193 6.74719 3.15033 6.74719ZM10.5011 7.87231C10.5634 7.87231 10.6225 7.85473 10.6849 7.85121C10.9572 7.08824 11.3576 6.37098 11.8761 5.76974C12.1189 5.48846 12.4635 5.32673 12.8245 5.32673C13.0509 5.32673 13.274 5.39002 13.4677 5.51308L13.7269 5.67481C13.7532 5.65723 13.7794 5.64317 13.8057 5.62559C14.0354 5.11225 14.1732 4.54266 14.1732 3.93791C14.1732 1.76151 12.5291 0 10.4978 0C8.46651 0 6.82571 1.758 6.82571 3.9344C6.82571 6.11079 8.46979 7.87231 10.5011 7.87231ZM13.9533 14.7109C13.8779 14.6687 13.8024 14.6195 13.7302 14.5738C13.4611 14.7426 13.2281 14.9184 12.8277 14.9184C12.4701 14.9184 12.1255 14.7566 11.8794 14.4753C11.2788 13.7792 10.8194 12.9318 10.5602 12.0282C10.209 10.8152 11.3773 10.2808 11.4068 10.2597C11.4035 10.1682 11.4035 10.0768 11.4068 9.98542L11.1476 9.82368C11.0229 9.74633 10.9179 9.64788 10.826 9.53889C10.7177 9.54592 10.6127 9.55998 10.5044 9.55998C9.69711 9.55998 8.94234 9.34902 8.25649 8.99742H7.98412C5.89374 8.99742 4.20044 10.8117 4.20044 13.0478V14.0605C4.20044 14.9922 4.90598 15.7481 5.7756 15.7481H14.1568C14.0354 15.5372 13.9533 15.2981 13.9533 15.0344V14.7109ZM5.68044 8.52628C5.29977 8.12194 4.778 7.87231 4.20044 7.87231H2.10022C0.941817 7.87231 0 8.8814 0 10.1225V11.2477C0 11.87 0.469268 12.3728 1.05011 12.3728H3.21268C3.41942 10.7062 4.35796 9.30332 5.68044 8.52628Z" fill="white"/>
</svg>
