<svg width="25" height="25" viewBox="0 0 25 25" fill="none" xmlns="http://www.w3.org/2000/svg">
<path d="M18.6387 12.0903C18.5892 11.9626 18.515 11.846 18.4203 11.7471L13.2197 6.54652C13.1228 6.44954 13.0076 6.37262 12.8809 6.32013C12.7542 6.26765 12.6184 6.24064 12.4813 6.24064C12.2043 6.24064 11.9387 6.35067 11.7428 6.54652C11.6458 6.6435 11.5689 6.75863 11.5164 6.88534C11.4639 7.01205 11.4369 7.14785 11.4369 7.285C11.4369 7.56198 11.5469 7.82762 11.7428 8.02347L15.1751 11.4454H7.28074C7.00489 11.4454 6.74033 11.555 6.54528 11.7501C6.35022 11.9451 6.24064 12.2097 6.24064 12.4855C6.24064 12.7614 6.35022 13.0259 6.54528 13.221C6.74033 13.4161 7.00489 13.5256 7.28074 13.5256H15.1751L11.7428 16.9476C11.6453 17.0443 11.5679 17.1593 11.5151 17.2861C11.4623 17.4128 11.4351 17.5488 11.4351 17.6861C11.4351 17.8234 11.4623 17.9593 11.5151 18.0861C11.5679 18.2128 11.6453 18.3278 11.7428 18.4245C11.8395 18.522 11.9545 18.5994 12.0813 18.6522C12.208 18.705 12.344 18.7322 12.4813 18.7322C12.6186 18.7322 12.7545 18.705 12.8813 18.6522C13.008 18.5994 13.1231 18.522 13.2197 18.4245L18.4203 13.224C18.515 13.1251 18.5892 13.0084 18.6387 12.8808C18.7427 12.6275 18.7427 12.3435 18.6387 12.0903Z" fill="white"/>
</svg>
