<svg width="33" height="35" viewBox="0 0 33 35" fill="none" xmlns="http://www.w3.org/2000/svg">
<rect width="33" height="35" rx="4" fill="#0056D0"/>
<path d="M25.1953 11.5938H23.0625V24.0625C23.0625 24.4106 23.2008 24.7444 23.4469 24.9906C23.6931 25.2367 24.0269 25.375 24.375 25.375C24.7231 25.375 25.0569 25.2367 25.3031 24.9906C25.5492 24.7444 25.6875 24.4106 25.6875 24.0625V12.0859C25.6875 11.9554 25.6356 11.8302 25.5433 11.7379C25.451 11.6456 25.3258 11.5938 25.1953 11.5938Z" fill="white"/>
<path d="M23.6839 26.5952C23.1288 26.4429 22.6389 26.1127 22.2896 25.6552C21.9402 25.1977 21.7507 24.6381 21.75 24.0625V8.80469C21.75 8.67415 21.6981 8.54896 21.6058 8.45666C21.5135 8.36436 21.3884 8.3125 21.2578 8.3125H7.80469C7.67415 8.3125 7.54896 8.36436 7.45666 8.45666C7.36436 8.54896 7.3125 8.67415 7.3125 8.80469V24.3906C7.3125 24.9998 7.55449 25.584 7.98524 26.0148C8.41599 26.4455 9.00021 26.6875 9.60938 26.6875H23.6716C23.6832 26.6879 23.6946 26.684 23.7035 26.6765C23.7124 26.669 23.7182 26.6585 23.7197 26.647C23.7213 26.6354 23.7184 26.6237 23.7118 26.6142C23.7052 26.6046 23.6952 26.5978 23.6839 26.5952ZM9.9375 15.5312V11.5938H13.875V15.5312H9.9375ZM19.125 23.4062H9.9375V22.0938H19.125V23.4062ZM19.125 20.7812H9.9375V19.4688H19.125V20.7812ZM19.125 18.1562H9.9375V16.8438H19.125V18.1562ZM19.125 15.5312H15.1875V14.2188H19.125V15.5312ZM19.125 12.9062H15.1875V11.5938H19.125V12.9062Z" fill="white"/>
</svg>
