<svg width="24" height="24" viewBox="0 0 24 24" fill="none" xmlns="http://www.w3.org/2000/svg">
<g clip-path="url(#clip0_0_129)">
<path fill-rule="evenodd" clip-rule="evenodd" d="M10.5 2.48853C9.1446 2.48864 7.80887 2.81289 6.60427 3.43422C5.39966 4.05555 4.3611 4.95594 3.57525 6.06028C2.78939 7.16462 2.27902 8.44087 2.08672 9.78257C1.89442 11.1243 2.02576 12.4925 2.46979 13.7731C2.91382 15.0537 3.65766 16.2096 4.63925 17.1442C5.62084 18.0789 6.81171 18.7653 8.11252 19.1461C9.41333 19.5269 10.7864 19.5912 12.117 19.3334C13.4477 19.0757 14.6975 18.5035 15.762 17.6645L19.414 21.3165C19.6026 21.4987 19.8552 21.5995 20.1174 21.5972C20.3796 21.5949 20.6304 21.4898 20.8158 21.3043C21.0012 21.1189 21.1064 20.8681 21.1087 20.6059C21.111 20.3437 21.0102 20.0911 20.828 19.9025L17.176 16.2505C18.164 14.9971 18.7792 13.4909 18.9511 11.9043C19.123 10.3176 18.8448 8.71455 18.1482 7.27862C17.4517 5.84269 16.3649 4.63188 15.0123 3.78476C13.6597 2.93763 12.096 2.48842 10.5 2.48853ZM4.00001 10.9885C4.00001 9.26462 4.68483 7.61132 5.90381 6.39233C7.1228 5.17334 8.7761 4.48853 10.5 4.48853C12.2239 4.48853 13.8772 5.17334 15.0962 6.39233C16.3152 7.61132 17 9.26462 17 10.9885C17 12.7124 16.3152 14.3657 15.0962 15.5847C13.8772 16.8037 12.2239 17.4885 10.5 17.4885C8.7761 17.4885 7.1228 16.8037 5.90381 15.5847C4.68483 14.3657 4.00001 12.7124 4.00001 10.9885Z" fill="black"/>
</g>
<defs>
<clipPath id="clip0_0_129">
<rect width="24" height="24" fill="white"/>
</clipPath>
</defs>
</svg>
