<svg width="32" height="32" viewBox="0 0 32 32" fill="none" xmlns="http://www.w3.org/2000/svg">
<path d="M14.6669 12C14.6669 11.6464 14.8074 11.3073 15.0574 11.0572C15.3075 10.8072 15.6466 10.6667 16.0002 10.6667C16.3539 10.6667 16.693 10.8072 16.9431 11.0572C17.1931 11.3073 17.3336 11.6464 17.3336 12C17.3336 12.3536 17.1931 12.6928 16.9431 12.9428C16.693 13.1929 16.3539 13.3334 16.0002 13.3334C15.6466 13.3334 15.3075 13.1929 15.0574 12.9428C14.8074 12.6928 14.6669 12.3536 14.6669 12Z" fill="white"/>
<path fill-rule="evenodd" clip-rule="evenodd" d="M13.1947 4.06801C13.5291 3.6441 13.9553 3.30149 14.4412 3.06594C14.9271 2.83038 15.46 2.70801 16 2.70801C16.54 2.70801 17.0729 2.83038 17.5588 3.06594C18.0447 3.30149 18.4709 3.6441 18.8053 4.06801C19.0013 4.31601 19.312 4.44401 19.6253 4.40801C20.1616 4.34467 20.7052 4.40367 21.2154 4.5806C21.7255 4.75753 22.189 5.04777 22.5708 5.42952C22.9527 5.81127 23.2431 6.27461 23.4202 6.78471C23.5973 7.29481 23.6565 7.83842 23.5933 8.37468C23.5748 8.52892 23.5962 8.68534 23.6555 8.82893C23.7148 8.97252 23.81 9.09846 23.932 9.19468C24.3559 9.52914 24.6985 9.95532 24.9341 10.4412C25.1696 10.9271 25.292 11.46 25.292 12C25.292 12.54 25.1696 13.0729 24.9341 13.5588C24.6985 14.0447 24.3559 14.4709 23.932 14.8053C23.81 14.9016 23.7148 15.0275 23.6555 15.1711C23.5962 15.3147 23.5748 15.4711 23.5933 15.6253C23.6567 16.1617 23.5977 16.7055 23.4207 17.2157C23.2437 17.726 22.9533 18.1895 22.5714 18.5714C22.1895 18.9533 21.726 19.2437 21.2157 19.4207C20.7055 19.5977 20.1617 19.6567 19.6253 19.5933C19.4711 19.5748 19.3147 19.5962 19.1711 19.6555C19.0275 19.7148 18.9015 19.81 18.8053 19.932C18.4706 20.3555 18.0443 20.6977 17.5584 20.9329C17.0726 21.1682 16.5398 21.2904 16 21.2904C15.4602 21.2904 14.9274 21.1682 14.4415 20.9329C13.9557 20.6977 13.5294 20.3555 13.1947 19.932C13.0987 19.81 12.9731 19.7147 12.8297 19.6551C12.6864 19.5956 12.5301 19.5739 12.376 19.592C11.8398 19.6554 11.2961 19.5964 10.786 19.4194C10.2758 19.2425 9.81238 18.9523 9.43049 18.5705C9.04861 18.1888 8.75822 17.7254 8.58112 17.2153C8.40402 16.7052 8.34483 16.1616 8.408 15.6253C8.42638 15.471 8.40476 15.3145 8.34522 15.1709C8.28568 15.0273 8.19021 14.9014 8.068 14.8053C7.64408 14.4709 7.30147 14.0447 7.06592 13.5588C6.83037 13.0729 6.70799 12.54 6.70799 12C6.70799 11.46 6.83037 10.9271 7.06592 10.4412C7.30147 9.95532 7.64408 9.52914 8.068 9.19468C8.19021 9.09861 8.28568 8.97273 8.34522 8.82914C8.40476 8.68554 8.42638 8.52904 8.408 8.37468C8.34483 7.83842 8.40402 7.29481 8.58112 6.78471C8.75822 6.27461 9.04861 5.81127 9.43049 5.42952C9.81238 5.04777 10.2758 4.75753 10.786 4.5806C11.2961 4.40367 11.8398 4.34467 12.376 4.40801C12.5301 4.42616 12.6864 4.40442 12.8297 4.34489C12.9731 4.28536 13.0987 4.19002 13.1947 4.06801ZM16 8.00001C14.9391 8.00001 13.9217 8.42144 13.1716 9.17159C12.4214 9.92173 12 10.9391 12 12C12 13.0609 12.4214 14.0783 13.1716 14.8284C13.9217 15.5786 14.9391 16 16 16C17.0609 16 18.0783 15.5786 18.8284 14.8284C19.5786 14.0783 20 13.0609 20 12C20 10.9391 19.5786 9.92173 18.8284 9.17159C18.0783 8.42144 17.0609 8.00001 16 8.00001Z" fill="white"/>
<path d="M7.19333 20.0733L5.42666 25.3333C5.3478 25.5683 5.33597 25.8205 5.39251 26.0618C5.44905 26.3031 5.57172 26.5239 5.74675 26.6993C5.92179 26.8748 6.14225 26.998 6.38341 27.0551C6.62457 27.1122 6.87687 27.101 7.112 27.0227L9.712 26.156L11.2373 28.432C11.3752 28.6368 11.5673 28.7994 11.7921 28.9015C12.0169 29.0036 12.2657 29.0412 12.5106 29.0103C12.7556 28.9793 12.9872 28.8809 13.1795 28.7261C13.3719 28.5712 13.5174 28.366 13.6 28.1333L15.0933 23.8933C13.8368 23.7132 12.6661 23.1509 11.74 22.2827C10.8697 22.2531 10.0152 22.0413 9.23182 21.661C8.44843 21.2807 7.75353 20.7403 7.192 20.0747L7.19333 20.0733ZM16.8853 23.896L18.3787 28.132C18.4611 28.365 18.6066 28.5706 18.7991 28.7256C18.9916 28.8807 19.2234 28.9793 19.4686 29.0102C19.7138 29.0412 19.9628 29.0034 20.1878 28.9011C20.4128 28.7987 20.6049 28.6359 20.7427 28.4307L22.268 26.1547L24.868 27.0213C25.103 27.0995 25.3551 27.1107 25.5961 27.0536C25.8371 26.9965 26.0574 26.8735 26.2324 26.6982C26.4073 26.523 26.5301 26.3024 26.5867 26.0614C26.6434 25.8203 26.6319 25.5682 26.5533 25.3333L24.7933 20.0933C24.2317 20.7537 23.5384 21.2896 22.7578 21.6666C21.9772 22.0436 21.1264 22.2534 20.26 22.2827C19.3289 23.1555 18.1506 23.719 16.8867 23.896H16.8853Z" fill="white"/>
</svg>
