<svg width="45" height="51" viewBox="0 0 45 51" fill="none" xmlns="http://www.w3.org/2000/svg">
<path d="M41.2482 15C41.2481 14.6598 41.1554 14.326 40.98 14.0344L35.9007 5.56875C35.566 5.01533 35.0946 4.55732 34.5318 4.2388C33.969 3.92027 33.3336 3.75194 32.6869 3.75H12.3094C11.0007 3.75 9.76879 4.4475 9.09567 5.57062L4.01629 14.0344C3.84096 14.326 3.74828 14.6598 3.74817 15C3.74817 16.8844 4.47192 18.5887 5.62317 19.9088V37.5C5.62317 37.9973 5.82071 38.4742 6.17234 38.8258C6.52397 39.1775 7.00089 39.375 7.49817 39.375H22.4982C22.9954 39.375 23.4724 39.1775 23.824 38.8258C24.1756 38.4742 24.3732 37.9973 24.3732 37.5V28.125H31.8732V37.5C31.8732 37.9973 32.0707 38.4742 32.4223 38.8258C32.774 39.1775 33.2509 39.375 33.7482 39.375H37.4982C37.9954 39.375 38.4724 39.1775 38.824 38.8258C39.1756 38.4742 39.3732 37.9973 39.3732 37.5V19.9088C40.5244 18.5887 41.2482 16.8844 41.2482 15ZM37.4682 15.4706C37.3536 16.3764 36.9125 17.2093 36.2276 17.813C35.5428 18.4168 34.6612 18.7499 33.7482 18.75C31.68 18.75 29.9982 17.0681 29.9982 15C29.9982 14.8725 29.9513 14.76 29.925 14.64L29.9625 14.6325L28.5357 7.5H32.6869L37.4682 15.4706ZM18.7613 15.1219L20.2838 7.5H24.7107L26.235 15.1219C26.1694 17.1337 24.5232 18.75 22.4982 18.75C20.4732 18.75 18.8269 17.1337 18.7613 15.1219ZM12.3094 7.5H16.4607L15.0357 14.6325L15.0732 14.64C15.045 14.76 14.9982 14.8725 14.9982 15C14.9982 17.0681 13.3163 18.75 11.2482 18.75C10.3352 18.7499 9.45357 18.4168 8.76871 17.813C8.08384 17.2093 7.64275 16.3764 7.52817 15.4706L12.3094 7.5ZM18.7482 30H11.2482V24.375H18.7482V30Z" fill="white"/>
</svg>
