<svg width="24" height="25" viewBox="0 0 24 25" fill="none" xmlns="http://www.w3.org/2000/svg">
<path d="M12 4.91211C7.02938 4.91211 3 8.94148 3 13.9121C3 15.5621 3.44531 17.1077 4.22063 18.4371C4.39594 18.7377 4.73 18.9121 5.07812 18.9121H18.9219C19.27 18.9121 19.6041 18.7377 19.7794 18.4371C20.5547 17.1077 21 15.5621 21 13.9121C21 8.94148 16.9706 4.91211 12 4.91211ZM12 6.91211C12.4597 6.91211 12.8306 7.22867 12.9475 7.65117C12.9128 7.7218 12.865 7.78336 12.8397 7.85961L12.5516 8.7243C12.3912 8.83336 12.2088 8.91211 12.0003 8.91211C11.4481 8.91211 11.0003 8.4643 11.0003 7.91211C11.0003 7.35992 11.4478 6.91211 12 6.91211ZM6 15.9121C5.44781 15.9121 5 15.4643 5 14.9121C5 14.3599 5.44781 13.9121 6 13.9121C6.55219 13.9121 7 14.3599 7 14.9121C7 15.4643 6.55219 15.9121 6 15.9121ZM7.5 10.9121C6.94781 10.9121 6.5 10.4643 6.5 9.91211C6.5 9.35992 6.94781 8.91211 7.5 8.91211C8.05219 8.91211 8.5 9.35992 8.5 9.91211C8.5 10.4643 8.05219 10.9121 7.5 10.9121ZM15.2116 8.6493L13.295 14.3993C13.7228 14.7662 14 15.304 14 15.9121C14 16.2784 13.8944 16.6168 13.7225 16.9121H10.2775C10.1056 16.6168 10 16.2784 10 15.9121C10 14.8515 10.8281 13.9924 11.8719 13.9249L13.7887 8.17461C13.9191 7.78211 14.3428 7.5668 14.7375 7.70055C15.1303 7.83148 15.3422 8.25648 15.2116 8.6493ZM15.6697 10.4368L16.1547 8.98211C16.2631 8.9418 16.3775 8.91242 16.5 8.91242C17.0522 8.91242 17.5 9.36023 17.5 9.91242C17.5 10.4646 17.0522 10.9124 16.5 10.9124C16.1444 10.9121 15.8472 10.7162 15.6697 10.4368ZM18 15.9121C17.4478 15.9121 17 15.4643 17 14.9121C17 14.3599 17.4478 13.9121 18 13.9121C18.5522 13.9121 19 14.3599 19 14.9121C19 15.4643 18.5522 15.9121 18 15.9121Z" fill="white"/>
</svg>
