<svg width="33" height="44" viewBox="0 0 33 44" fill="none" xmlns="http://www.w3.org/2000/svg">
<path d="M5.5 13.4375C5.5 11.4381 7.14427 9.8125 9.16667 9.8125H23.8333C25.8557 9.8125 27.5 11.4381 27.5 13.4375V26.125C27.5 28.1244 25.8557 29.75 23.8333 29.75H9.16667C7.14427 29.75 5.5 28.1244 5.5 26.125V13.4375ZM20.8943 14.5477C20.2526 14.1512 19.4047 14.3438 18.9979 14.9781L15.4802 20.5459L13.9333 18.5068C13.475 17.9064 12.6156 17.7818 12.0083 18.235C11.401 18.6881 11.275 19.5377 11.7333 20.1381L14.4833 23.7631C14.7526 24.1199 15.188 24.3238 15.6406 24.3068C16.0932 24.2898 16.5057 24.052 16.7464 23.6668L21.3297 16.4168C21.7307 15.7824 21.5359 14.9441 20.8943 14.542V14.5477ZM2.75 25.6719V31.5625C2.75 32.0609 3.1625 32.4688 3.66667 32.4688H29.3333C29.8375 32.4688 30.25 32.0609 30.25 31.5625V25.6719C30.25 24.9186 30.863 24.3125 31.625 24.3125C32.387 24.3125 33 24.9186 33 25.6719V31.5625C33 33.5619 31.3557 35.1875 29.3333 35.1875H3.66667C1.64427 35.1875 0 33.5619 0 31.5625V25.6719C0 24.9186 0.613021 24.3125 1.375 24.3125C2.13698 24.3125 2.75 24.9186 2.75 25.6719Z" fill="#FBC02D"/>
</svg>
