<svg width="16" height="16" viewBox="0 0 16 16" fill="none" xmlns="http://www.w3.org/2000/svg">
<path d="M7.557 2.06554C7.68891 2.12472 7.80091 2.22077 7.8795 2.34212C7.9581 2.46348 7.99994 2.60496 8 2.74954V13.2495C7.99985 13.394 7.95796 13.5354 7.87938 13.6566C7.8008 13.7779 7.68887 13.8739 7.55704 13.933C7.42522 13.9922 7.27912 14.012 7.1363 13.9901C6.99349 13.9682 6.86004 13.9055 6.752 13.8095L3.59 10.9995H2C1.73478 10.9995 1.48043 10.8942 1.29289 10.7066C1.10536 10.5191 1 10.2648 1 9.99954V5.99954C1 5.73432 1.10536 5.47997 1.29289 5.29243C1.48043 5.1049 1.73478 4.99954 2 4.99954H3.59L6.752 2.18954C6.85998 2.09352 6.99339 2.03074 7.1362 2.00874C7.27901 1.98675 7.42513 2.00647 7.557 2.06554ZM12.95 3.04954C12.8813 2.97585 12.7985 2.91675 12.7065 2.87576C12.6145 2.83477 12.5152 2.81273 12.4145 2.81095C12.3138 2.80917 12.2138 2.8277 12.1204 2.86542C12.027 2.90314 11.9422 2.95928 11.871 3.0305C11.7997 3.10172 11.7436 3.18655 11.7059 3.27994C11.6682 3.37333 11.6496 3.47336 11.6514 3.57406C11.6532 3.67477 11.6752 3.77408 11.7162 3.86608C11.7572 3.95808 11.8163 4.04088 11.89 4.10954C12.401 4.6203 12.8064 5.22673 13.0829 5.89419C13.3595 6.56164 13.5018 7.27705 13.5018 7.99954C13.5018 8.72203 13.3595 9.43744 13.0829 10.1049C12.8064 10.7724 12.401 11.3788 11.89 11.8895C11.8163 11.9582 11.7572 12.041 11.7162 12.133C11.6752 12.225 11.6532 12.3243 11.6514 12.425C11.6496 12.5257 11.6682 12.6257 11.7059 12.7191C11.7436 12.8125 11.7997 12.8974 11.871 12.9686C11.9422 13.0398 12.027 13.0959 12.1204 13.1337C12.2138 13.1714 12.3138 13.1899 12.4145 13.1881C12.5152 13.1864 12.6145 13.1643 12.7065 13.1233C12.7985 13.0823 12.8813 13.0232 12.95 12.9495C13.6001 12.2995 14.1158 11.5278 14.4676 10.6785C14.8194 9.82916 15.0005 8.91885 15.0005 7.99954C15.0005 7.08023 14.8194 6.16992 14.4676 5.32059C14.1158 4.47127 13.6001 3.69956 12.95 3.04954Z" fill="white"/>
<path d="M10.828 5.17162C10.7593 5.09793 10.6765 5.03883 10.5845 4.99783C10.4925 4.95684 10.3932 4.9348 10.2925 4.93302C10.1918 4.93125 10.0918 4.94977 9.99841 4.98749C9.90502 5.02521 9.82019 5.08136 9.74897 5.15258C9.67775 5.2238 9.6216 5.30863 9.58388 5.40202C9.54616 5.49541 9.52764 5.59544 9.52941 5.69614C9.53119 5.79684 9.55323 5.89615 9.59422 5.98815C9.63522 6.08015 9.69432 6.16295 9.768 6.23162C10.0002 6.46377 10.1844 6.7394 10.3101 7.04275C10.4358 7.34611 10.5005 7.67126 10.5005 7.99962C10.5005 8.32798 10.4358 8.65312 10.3101 8.95648C10.1844 9.25983 10.0002 9.53546 9.768 9.76762C9.69432 9.83628 9.63522 9.91908 9.59422 10.0111C9.55323 10.1031 9.53119 10.2024 9.52941 10.3031C9.52764 10.4038 9.54616 10.5038 9.58388 10.5972C9.6216 10.6906 9.67775 10.7754 9.74897 10.8467C9.82019 10.9179 9.90502 10.974 9.99841 11.0117C10.0918 11.0495 10.1918 11.068 10.2925 11.0662C10.3932 11.0644 10.4925 11.0424 10.5845 11.0014C10.6765 10.9604 10.7593 10.9013 10.828 10.8276C11.5779 10.0775 11.9992 9.06027 11.9992 7.99962C11.9992 6.93896 11.5779 5.92173 10.828 5.17162Z" fill="white"/>
</svg>
