<svg width="16" height="16" viewBox="0 0 16 16" fill="none" xmlns="http://www.w3.org/2000/svg">
<path d="M8.694 2.04C8.78456 2.07812 8.86188 2.14209 8.9163 2.2239C8.97073 2.30571 8.99984 2.40174 9 2.5V13.5C8.99999 13.5985 8.9709 13.6947 8.9164 13.7767C8.86189 13.8587 8.78439 13.9228 8.69362 13.9609C8.60284 13.999 8.50283 14.0095 8.40612 13.991C8.30941 13.9725 8.22031 13.9259 8.15 13.857L5.223 10.982H3.5C3.10218 10.982 2.72064 10.824 2.43934 10.5427C2.15804 10.2614 2 9.87982 2 9.482V6.492C2 6.09417 2.15804 5.71264 2.43934 5.43134C2.72064 5.15003 3.10218 4.992 3.5 4.992H5.224L8.151 2.142C8.22136 2.07336 8.3104 2.02697 8.40697 2.00865C8.50355 1.99034 8.60339 2.00189 8.694 2.04ZM8 3.684L5.777 5.851C5.68339 5.94227 5.55775 5.99325 5.427 5.993H3.5C3.36739 5.993 3.24021 6.04568 3.14645 6.13945C3.05268 6.23321 3 6.36039 3 6.493V9.482C3 9.61461 3.05268 9.74178 3.14645 9.83555C3.24021 9.92932 3.36739 9.982 3.5 9.982H5.428C5.55889 9.98202 5.68455 10.0334 5.778 10.125L8 12.308V3.684ZM10.111 5.188C10.1519 5.13655 10.2025 5.09367 10.26 5.0618C10.3174 5.02994 10.3806 5.00971 10.4459 5.00228C10.5112 4.99485 10.5773 5.00036 10.6405 5.0185C10.7036 5.03664 10.7626 5.06705 10.814 5.108L10.816 5.109L10.818 5.111L10.823 5.115L10.838 5.128L10.884 5.168C10.9207 5.20133 10.968 5.24867 11.026 5.31C11.139 5.433 11.286 5.612 11.431 5.85C11.722 6.33 12.004 7.043 12.004 7.998C12.004 8.952 11.722 9.666 11.431 10.146C11.3143 10.3393 11.1786 10.5206 11.026 10.687C10.9618 10.7555 10.8944 10.8209 10.824 10.883L10.816 10.89H10.815C10.815 10.89 10.368 11.133 10.112 10.812C10.0297 10.709 9.99137 10.5777 10.0054 10.4466C10.0195 10.3155 10.0847 10.1952 10.187 10.112L10.189 10.11L10.207 10.094C10.2257 10.0773 10.254 10.049 10.292 10.009C10.3991 9.89139 10.4942 9.76343 10.576 9.627C10.786 9.282 11.004 8.745 11.004 7.997C11.004 7.249 10.786 6.714 10.576 6.37C10.473 6.20038 10.3494 6.04419 10.208 5.905L10.19 5.889C10.0868 5.80633 10.0206 5.68617 10.0058 5.55481C9.991 5.42344 10.0288 5.29155 10.111 5.188ZM11.813 3.108C11.7618 3.06564 11.7027 3.0339 11.6391 3.01465C11.5755 2.99539 11.5087 2.98901 11.4426 2.99587C11.3765 3.00272 11.3125 3.02268 11.2542 3.05458C11.1959 3.08648 11.1445 3.12967 11.1031 3.18164C11.0617 3.23361 11.0311 3.29331 11.0131 3.35725C10.995 3.42119 10.9898 3.4881 10.9979 3.55405C11.006 3.62 11.0272 3.68367 11.0601 3.74136C11.0931 3.79904 11.1373 3.84957 11.19 3.89L11.201 3.9L11.253 3.945C11.301 3.987 11.368 4.052 11.454 4.14C11.624 4.317 11.854 4.583 12.084 4.934C12.544 5.635 13.004 6.667 13.004 8.003C13.0079 9.09327 12.6877 10.1601 12.084 11.068C11.854 11.418 11.624 11.682 11.454 11.858C11.3735 11.9416 11.2894 12.0217 11.202 12.098L11.191 12.108H11.19C11.0891 12.1915 11.025 12.3113 11.0115 12.4416C10.9979 12.5719 11.0361 12.7023 11.1177 12.8048C11.1993 12.9072 11.3179 12.9735 11.4479 12.9895C11.578 13.0054 11.709 12.9697 11.813 12.89L11.846 12.863L11.921 12.798C11.984 12.741 12.071 12.66 12.174 12.553C12.4514 12.265 12.7011 11.9516 12.92 11.617C13.6304 10.5459 14.0072 9.28824 14.003 8.003C14.0056 6.71674 13.6289 5.45826 12.92 4.385C12.7011 4.05007 12.4517 3.73607 12.175 3.447C12.0704 3.33844 11.961 3.23467 11.847 3.136L11.824 3.117L11.817 3.111L11.815 3.109L11.813 3.108Z" fill="white"/>
</svg>
