<svg width="45" height="51" viewBox="0 0 45 51" fill="none" xmlns="http://www.w3.org/2000/svg">
<g clip-path="url(#clip0_0_591)">
<path d="M15.2679 8.76562C15.2679 7.8238 15.4549 6.8912 15.8184 6.02107C16.1818 5.15093 16.7145 4.36031 17.3861 3.69434C18.0577 3.02837 18.8549 2.5001 19.7324 2.13968C20.6098 1.77926 21.5503 1.59375 22.5 1.59375C23.4497 1.59375 24.3902 1.77926 25.2676 2.13968C26.1451 2.5001 26.9423 3.02837 27.6139 3.69434C28.2855 4.36031 28.8182 5.15093 29.1816 6.02107C29.5451 6.8912 29.7321 7.8238 29.7321 8.76562C29.7321 9.70745 29.5451 10.64 29.1816 11.5102C28.8182 12.3803 28.2855 13.1709 27.6139 13.8369C26.9423 14.5029 26.1451 15.0312 25.2676 15.3916C24.3902 15.752 23.4497 15.9375 22.5 15.9375C21.5503 15.9375 20.6098 15.752 19.7324 15.3916C18.8549 15.0312 18.0577 14.5029 17.3861 13.8369C16.7145 13.1709 16.1818 12.3803 15.8184 11.5102C15.4549 10.64 15.2679 9.70745 15.2679 8.76562ZM3.98772 14.3936C5.29352 12.6105 7.80468 12.2221 9.60267 13.517L13.2388 16.1367C15.9308 18.0791 19.1752 19.125 22.5 19.125C25.8248 19.125 29.0692 18.0791 31.7612 16.1367L35.3973 13.507C37.1953 12.2121 39.7065 12.6105 41.0123 14.3836C42.3181 16.1566 41.9163 18.6568 40.1283 19.9518L36.4922 22.5814C35.1261 23.5676 33.6696 24.3943 32.1429 25.0717V28.6875H12.8571V25.0717C11.3304 24.4043 9.87388 23.5676 8.50781 22.5814L4.87165 19.9518C3.07366 18.6568 2.68192 16.1666 3.98772 14.3836V14.3936ZM13.0078 32.8014L19.0949 38.0807L16.4833 41.7861L18.9241 44.2066C20.4911 45.7605 20.4911 48.2807 18.9241 49.8445C17.3571 51.4084 14.8158 51.3984 13.2388 49.8445L8.41741 45.0633C7.03125 43.6887 6.8404 41.5371 7.95535 39.9533L12.9978 32.8014H13.0078ZM25.9152 38.0807L32.0022 32.8014L37.0446 39.9533C38.1596 41.5371 37.9687 43.6887 36.5926 45.0533L31.7712 49.8346C30.2042 51.3885 27.6629 51.3885 26.0859 49.8346C24.5089 48.2807 24.519 45.7605 26.0859 44.1967L28.5268 41.7762L25.9152 38.0707V38.0807Z" fill="white"/>
</g>
<defs>
<clipPath id="clip0_0_591">
<rect width="45" height="51" fill="white"/>
</clipPath>
</defs>
</svg>
