<svg width="16" height="16" viewBox="0 0 16 16" fill="none" xmlns="http://www.w3.org/2000/svg">
<path fill-rule="evenodd" clip-rule="evenodd" d="M8.66663 12.6667V15.3333H7.33328V12.6667H8.66663ZM11.7712 10.8284L13.6568 12.714L12.714 13.6568L10.8284 11.7712L11.7712 10.8284ZM4.22872 10.8284L5.17153 11.7712L3.28591 13.6568L2.34309 12.714L4.22872 10.8284ZM7.99997 4.35478C10.0132 4.35478 11.6452 5.98678 11.6452 8C11.6452 10.0132 10.0132 11.6452 7.99997 11.6452C7.52102 11.6461 7.04659 11.5525 6.60392 11.3696C6.16125 11.1867 5.75904 10.9183 5.42037 10.5796C5.0817 10.2409 4.81322 9.83871 4.63035 9.39604C4.44748 8.95337 4.35381 8.47895 4.35472 8C4.35472 5.98678 5.98675 4.35478 7.99997 4.35478ZM7.99997 5.68809C6.72313 5.68809 5.68806 6.72319 5.68806 8.00253C5.68749 8.30596 5.74682 8.60652 5.86267 8.88696C5.97852 9.16741 6.1486 9.42222 6.36316 9.63678C6.7965 10.0701 7.38456 10.313 7.99997 10.3119V5.68809ZM15.3333 7.33331V8.66666H12.6666V7.33331H15.3333ZM3.33328 7.33331V8.66666H0.666626V7.33331H3.33328ZM3.28591 2.34313L5.17153 4.22875L4.22872 5.17156L2.34309 3.28594L3.28591 2.34313ZM12.714 2.34313L13.6568 3.28594L11.7712 5.17156L10.8284 4.22875L12.714 2.34313ZM8.66659 0.666656V3.33331H7.33325V0.666656H8.66659Z" fill="white"/>
</svg>
