<svg width="47" height="47" viewBox="0 0 47 47" fill="none" xmlns="http://www.w3.org/2000/svg">
<path d="M27.7817 6.65833H19.2183C17.9462 6.65833 16.9169 6.65833 16.085 6.72883C15.2233 6.80246 14.4666 6.95599 13.7663 7.32573C12.6547 7.9166 11.759 8.84465 11.2079 9.97653C10.8586 10.6878 10.7129 11.4555 10.6439 12.3375C10.575 13.1976 10.575 14.2598 10.575 15.5836V31.4164C10.575 32.7402 10.575 33.8024 10.6424 34.6625C10.7129 35.5445 10.8586 36.3122 11.2064 37.0235C11.7583 38.1558 12.6551 39.0839 13.7679 39.6743C14.4666 40.044 15.2249 40.1975 16.0834 40.2696C16.7336 40.326 17.4997 40.3385 18.4083 40.3417V28.9833C18.4083 27.8407 18.8623 26.7448 19.6702 25.9369C20.4782 25.1289 21.574 24.675 22.7167 24.675H24.2833C25.426 24.675 26.5218 25.1289 27.3298 25.9369C28.1378 26.7448 28.5917 27.8407 28.5917 28.9833V40.3417C29.3673 40.3485 30.1428 40.3249 30.9166 40.2712C31.7767 40.1975 32.5334 40.044 33.2321 39.6743C34.3443 39.0836 35.2406 38.1556 35.7921 37.0235C36.1414 36.3122 36.2871 35.5445 36.3561 34.6609C36.425 33.8024 36.425 32.7402 36.425 31.4179V15.5836C36.425 14.2598 36.425 13.1976 36.3576 12.3375C36.2887 11.4555 36.1414 10.6878 35.7936 9.97653C35.2418 8.84418 34.3449 7.91608 33.2321 7.32573C32.5334 6.95599 31.7751 6.80246 30.9166 6.73039C30.0831 6.65833 29.0538 6.65833 27.7833 6.65833M16.0583 14.1C16.0583 13.7884 16.1821 13.4895 16.4025 13.2691C16.6229 13.0488 16.9217 12.925 17.2333 12.925H20.3667C20.6783 12.925 20.9772 13.0488 21.1975 13.2691C21.4179 13.4895 21.5417 13.7884 21.5417 14.1C21.5417 14.4116 21.4179 14.7105 21.1975 14.9308C20.9772 15.1512 20.6783 15.275 20.3667 15.275H17.2333C16.9217 15.275 16.6229 15.1512 16.4025 14.9308C16.1821 14.7105 16.0583 14.4116 16.0583 14.1ZM17.2333 19.1917H20.3667C20.6783 19.1917 20.9772 19.3155 21.1975 19.5358C21.4179 19.7562 21.5417 20.055 21.5417 20.3667C21.5417 20.6783 21.4179 20.9772 21.1975 21.1975C20.9772 21.4179 20.6783 21.5417 20.3667 21.5417H17.2333C16.9217 21.5417 16.6229 21.4179 16.4025 21.1975C16.1821 20.9772 16.0583 20.6783 16.0583 20.3667C16.0583 20.055 16.1821 19.7562 16.4025 19.5358C16.6229 19.3155 16.9217 19.1917 17.2333 19.1917ZM25.4583 14.1C25.4583 13.7884 25.5821 13.4895 25.8025 13.2691C26.0229 13.0488 26.3217 12.925 26.6333 12.925H29.7667C30.0783 12.925 30.3772 13.0488 30.5975 13.2691C30.8179 13.4895 30.9417 13.7884 30.9417 14.1C30.9417 14.4116 30.8179 14.7105 30.5975 14.9308C30.3772 15.1512 30.0783 15.275 29.7667 15.275H26.6333C26.3217 15.275 26.0229 15.1512 25.8025 14.9308C25.5821 14.7105 25.4583 14.4116 25.4583 14.1ZM26.6333 19.1917H29.7667C30.0783 19.1917 30.3772 19.3155 30.5975 19.5358C30.8179 19.7562 30.9417 20.055 30.9417 20.3667C30.9417 20.6783 30.8179 20.9772 30.5975 21.1975C30.3772 21.4179 30.0783 21.5417 29.7667 21.5417H26.6333C26.3217 21.5417 26.0229 21.4179 25.8025 21.1975C25.5821 20.9772 25.4583 20.6783 25.4583 20.3667C25.4583 20.055 25.5821 19.7562 25.8025 19.5358C26.0229 19.3155 26.3217 19.1917 26.6333 19.1917Z" fill="black"/>
<path d="M26.2419 40.3417V28.9834C26.2419 27.9024 25.3646 27.025 24.2836 27.025H22.7169C21.6359 27.025 20.7586 27.9024 20.7586 28.9834V40.3417H26.2419Z" fill="black"/>
</svg>
