<svg width="24" height="25" viewBox="0 0 24 25" fill="none" xmlns="http://www.w3.org/2000/svg">
<path d="M14.049 22.5214C14.7724 22.5214 15.2846 21.8991 15.6562 20.9348L22.2356 3.74823C22.4164 3.28623 22.527 2.87437 22.527 2.5328C22.527 1.88009 22.1152 1.47852 21.462 1.47852C21.1204 1.47852 20.7086 1.5788 20.2466 1.75966L2.97002 8.37852C2.12574 8.69994 1.47302 9.21209 1.47302 9.94537C1.47302 10.8694 2.17631 11.1809 3.14059 11.4724L8.57488 13.1194C9.20745 13.3208 9.56917 13.3002 10.0012 12.8987L21.0197 2.60266C21.1504 2.48223 21.3013 2.50237 21.402 2.5928C21.5023 2.69309 21.5122 2.84394 21.3917 2.97423L11.136 14.0335C10.7546 14.4454 10.7143 14.7869 10.9153 15.4598L12.5023 20.7634C12.8036 21.7778 13.1152 22.5214 14.0495 22.5214" fill="#F77A40"/>
</svg>
