<svg width="39" height="39" viewBox="0 0 39 39" fill="none" xmlns="http://www.w3.org/2000/svg">
<path d="M36.4979 9.75C35.2467 10.3187 33.8979 10.6925 32.5004 10.8713C33.9304 10.01 35.0354 8.645 35.5554 7.00375C34.2067 7.81625 32.7117 8.385 31.1354 8.71C29.8517 7.3125 28.0479 6.5 26.0004 6.5C22.1817 6.5 19.0617 9.62 19.0617 13.4713C19.0617 14.0237 19.1267 14.56 19.2404 15.0638C13.4554 14.7713 8.30418 11.9925 4.87543 7.78375C4.27418 8.8075 3.93293 10.01 3.93293 11.2775C3.93293 13.6988 5.15168 15.8438 7.03668 17.0625C5.88293 17.0625 4.81043 16.7375 3.86793 16.25V16.2987C3.86793 19.6787 6.27293 22.5063 9.45793 23.14C8.43554 23.421 7.36174 23.46 6.32168 23.2537C6.76304 24.639 7.62743 25.8512 8.79333 26.7198C9.95924 27.5884 11.368 28.0697 12.8217 28.0963C10.3576 30.0471 7.30319 31.1015 4.16043 31.0862C3.60793 31.0862 3.05543 31.0537 2.50293 30.9888C5.59043 32.9712 9.26293 34.125 13.1954 34.125C26.0004 34.125 33.0367 23.4975 33.0367 14.2838C33.0367 13.975 33.0367 13.6825 33.0204 13.3737C34.3854 12.3987 35.5554 11.1638 36.4979 9.75Z" fill="white"/>
</svg>
