<svg width="45" height="51" viewBox="0 0 45 51" fill="none" xmlns="http://www.w3.org/2000/svg">
<g clip-path="url(#clip0_0_559)">
<path d="M36.9281 11.6156L26.3531 1.04062C25.6896 0.375716 24.7893 0.00142352 23.85 0L10.5469 0C9.61447 0 8.72026 0.370395 8.06095 1.0297C7.40165 1.68901 7.03125 2.58322 7.03125 3.51562V41.4844C7.03125 42.4168 7.40165 43.311 8.06095 43.9703C8.72026 44.6296 9.61447 45 10.5469 45H34.4531C35.3855 45 36.2797 44.6296 36.939 43.9703C37.5984 43.311 37.9688 42.4168 37.9688 41.4844V14.0625C37.9526 13.1427 37.5794 12.2653 36.9281 11.6156ZM34.4531 41.4844H10.5469V3.51562H20.3344V14.0625C20.3269 14.5289 20.4123 14.9921 20.5857 15.4252C20.759 15.8582 21.0168 16.2524 21.344 16.5849C21.6712 16.9173 22.0613 17.1813 22.4915 17.3615C22.9218 17.5417 23.3835 17.6344 23.85 17.6344H34.4531V41.4844ZM34.4531 14.1187H23.85V3.51562L34.4531 14.0625V14.1187Z" fill="white"/>
<path d="M14.0625 21.0938H30.9375V24.6094H14.0625V21.0938ZM14.0625 28.125H30.9375V31.6406H14.0625V28.125Z" fill="white"/>
</g>
<defs>
<clipPath id="clip0_0_559">
<rect width="45" height="45" fill="white"/>
</clipPath>
</defs>
</svg>
