<svg width="10" height="10" viewBox="0 0 10 10" fill="none" xmlns="http://www.w3.org/2000/svg">
<g clip-path="url(#clip0_0_474)">
<path d="M2.50001 0.416748H3.33334V0.833415H2.50001V0.416748ZM6.66667 0.416748H7.50001V0.833415H6.66667V0.416748ZM9.16667 2.08341V1.66675H7.91667V0.833415H7.50001V2.91675H6.66667V0.833415H6.25001V1.66675H3.75001V0.833415H3.33334V2.91675H2.50001V0.833415H2.08334V1.66675H0.833338V2.08341H0.416672V9.16675H0.833338V9.58342H9.16667V9.16675H9.58334V2.08341H9.16667ZM8.75001 3.33341V4.58342H7.50001V3.33341H8.75001ZM8.75001 6.66675H7.50001V5.41675H8.75001V6.66675ZM8.75001 8.75008H7.50001V7.50008H8.75001V8.75008ZM1.25001 7.50008H2.50001V8.75008H1.25001V7.50008ZM1.25001 5.41675H2.50001V6.66675H1.25001V5.41675ZM6.66667 6.66675H5.41667V5.41675H6.66667V6.66675ZM4.58334 6.66675H3.33334V5.41675H4.58334V6.66675ZM3.33334 7.50008H4.58334V8.75008H3.33334V7.50008ZM5.41667 7.50008H6.66667V8.75008H5.41667V7.50008ZM6.66667 4.58342H5.41667V3.33341H6.66667V4.58342ZM4.58334 3.33341V4.58342H3.33334V3.33341H4.58334ZM2.50001 4.58342H1.25001V3.33341H2.50001V4.58342Z" fill="#6B7280"/>
</g>
<defs>
<clipPath id="clip0_0_474">
<rect width="10" height="10" fill="white"/>
</clipPath>
</defs>
</svg>
