<svg width="47" height="47" fill="none" xmlns="http://www.w3.org/2000/svg"><path d="M27.782 6.658h-8.564c-1.272 0-2.301 0-3.133.07-.862.074-1.618.228-2.319.598a5.954 5.954 0 00-2.558 2.65c-.35.712-.495 1.48-.564 2.361-.069.86-.069 1.923-.069 3.247v15.832c0 1.324 0 2.386.067 3.247.07.882.217 1.65.564 2.36a5.954 5.954 0 002.562 2.651c.699.37 1.457.523 2.315.596.65.056 1.417.069 2.325.072V28.983a4.308 4.308 0 014.309-4.308h1.566a4.308 4.308 0 014.309 4.308v11.359c.775.007 1.55-.017 2.325-.07.86-.075 1.616-.228 2.315-.598a5.954 5.954 0 002.56-2.65c.35-.712.495-1.48.564-2.363.069-.859.069-1.92.069-3.243V15.584c0-1.324 0-2.386-.067-3.246-.07-.882-.217-1.65-.564-2.361a5.953 5.953 0 00-2.562-2.651c-.699-.37-1.457-.524-2.315-.596-.834-.072-1.863-.072-3.134-.072M16.058 14.1a1.175 1.175 0 011.175-1.175h3.134a1.175 1.175 0 010 2.35h-3.134a1.175 1.175 0 01-1.175-1.175zm1.175 5.092h3.134a1.175 1.175 0 010 2.35h-3.134a1.175 1.175 0 010-2.35zm8.225-5.092a1.175 1.175 0 011.175-1.175h3.134a1.175 1.175 0 010 2.35h-3.134a1.175 1.175 0 01-1.175-1.175zm1.175 5.092h3.134a1.175 1.175 0 010 2.35h-3.134a1.175 1.175 0 010-2.35z" fill="#000"/><path d="M26.242 40.342V28.983a1.96 1.96 0 00-1.958-1.958h-1.567a1.96 1.96 0 00-1.958 1.958v11.359h5.483z" fill="#000"/></svg>