<svg width="21" height="16" fill="none" xmlns="http://www.w3.org/2000/svg"><path d="M20.034 10.871a4.41 4.41 0 000-1.497l.847-.524a.263.263 0 00.108-.3 5.377 5.377 0 00-1.09-2.017.228.228 0 00-.295-.05l-.846.524a3.8 3.8 0 00-1.211-.749V5.211a.253.253 0 00-.187-.25 4.63 4.63 0 00-2.173 0 .253.253 0 00-.187.25v1.047a3.797 3.797 0 00-1.21.75l-.847-.525a.229.229 0 00-.296.05 5.375 5.375 0 00-1.09 2.018.267.267 0 00.11.299l.846.524a4.415 4.415 0 000 1.497l-.847.524a.263.263 0 00-.108.3c.22.759.597 1.444 1.09 2.017a.228.228 0 00.295.05l.846-.524c.358.327.768.58 1.211.749v1.047c0 .12.079.225.187.25a4.629 4.629 0 002.173 0 .253.253 0 00.187-.25v-1.047a3.798 3.798 0 001.21-.75l.847.525a.23.23 0 00.296-.05 5.38 5.38 0 001.09-2.018.268.268 0 00-.11-.299l-.846-.524zm-3.757.957c-.88 0-1.592-.767-1.592-1.705 0-.94.715-1.706 1.592-1.706.876 0 1.591.767 1.591 1.706 0 .938-.712 1.705-1.591 1.705zM3.15 6.748c1.159 0 2.1-1.01 2.1-2.251 0-1.241-.941-2.25-2.1-2.25-1.158 0-2.1 1.009-2.1 2.25s.942 2.25 2.1 2.25zm7.351 1.124c.062 0 .122-.017.184-.02a6.576 6.576 0 011.191-2.082c.243-.282.588-.443.949-.443a1.2 1.2 0 01.643.186l.259.162c.026-.018.052-.032.079-.05.23-.513.367-1.082.367-1.687C14.173 1.762 12.53 0 10.498 0 8.467 0 6.826 1.758 6.826 3.934c0 2.177 1.644 3.938 3.675 3.938zm3.452 6.839c-.075-.042-.15-.091-.223-.137-.269.169-.502.344-.902.344-.358 0-.702-.161-.949-.443a6.532 6.532 0 01-1.319-2.447c-.351-1.213.817-1.747.847-1.768a3.8 3.8 0 010-.275l-.26-.161a1.362 1.362 0 01-.321-.285c-.108.007-.213.021-.322.021a4.9 4.9 0 01-2.248-.563h-.272c-2.09 0-3.784 1.815-3.784 4.05v1.013c0 .932.706 1.688 1.576 1.688h8.38a1.423 1.423 0 01-.203-.714v-.323zM5.68 8.526a2.026 2.026 0 00-1.48-.654H2.1c-1.158 0-2.1 1.01-2.1 2.25v1.126c0 .622.47 1.125 1.05 1.125h2.163c.206-1.667 1.145-3.07 2.467-3.847z" fill="#fff"/></svg>