<svg width="45" height="51" fill="none" xmlns="http://www.w3.org/2000/svg"><path d="M41.248 15c0-.34-.093-.674-.268-.966L35.9 5.57a3.77 3.77 0 00-3.213-1.819H12.309c-1.308 0-2.54.697-3.213 1.82l-5.08 8.464a1.875 1.875 0 00-.268.966c0 1.884.724 3.589 1.875 4.909V37.5a1.875 1.875 0 001.875 1.875h15a1.875 1.875 0 001.875-1.875v-9.375h7.5V37.5a1.875 1.875 0 001.875 1.875h3.75a1.875 1.875 0 001.875-1.875V19.909c1.151-1.32 1.875-3.025 1.875-4.909zm-3.78.47a3.75 3.75 0 01-7.47-.47c0-.127-.047-.24-.073-.36l.037-.008L28.537 7.5h4.15l4.782 7.97zm-18.707-.348L20.284 7.5h4.427l1.524 7.622a3.746 3.746 0 01-3.737 3.628 3.746 3.746 0 01-3.737-3.628zM12.31 7.5h4.152l-1.425 7.133.037.007c-.028.12-.075.232-.075.36a3.75 3.75 0 01-7.47.47L12.31 7.5zM18.75 30h-7.5v-5.625h7.5V30z" fill="#fff"/></svg>