<svg width="39" height="39" fill="none" xmlns="http://www.w3.org/2000/svg"><path d="M16.25 24.375l8.434-4.875-8.434-4.875v9.75zm18.785-12.724c.211.764.358 1.788.455 3.088.114 1.3.163 2.421.163 3.396l.097 1.365c0 3.559-.26 6.175-.715 7.849-.406 1.462-1.349 2.405-2.811 2.811-.764.211-2.161.357-4.306.455-2.113.114-4.047.163-5.834.163l-2.584.097c-6.809 0-11.05-.26-12.724-.715-1.462-.406-2.405-1.349-2.811-2.811-.211-.764-.357-1.788-.455-3.088a39.095 39.095 0 01-.162-3.396L3.25 19.5c0-3.559.26-6.175.715-7.849.406-1.462 1.349-2.405 2.811-2.811.764-.211 2.162-.357 4.306-.455 2.113-.114 4.047-.162 5.834-.162l2.584-.098c6.809 0 11.05.26 12.724.715 1.462.406 2.405 1.349 2.811 2.811z" fill="#F77A40"/></svg>