<svg width="16" height="16" fill="none" xmlns="http://www.w3.org/2000/svg"><path d="M8.694 2.04A.5.5 0 019 2.5v11a.5.5 0 01-.85.357l-2.927-2.875H3.5a1.5 1.5 0 01-1.5-1.5v-2.99a1.5 1.5 0 011.5-1.5h1.724l2.927-2.85a.5.5 0 01.543-.102zM8 3.684L5.777 5.851a.5.5 0 01-.35.142H3.5a.5.5 0 00-.5.5v2.989a.5.5 0 00.5.5h1.928a.5.5 0 01.35.143L8 12.308V3.684zm2.111 1.504a.5.5 0 01.703-.08l.002.001.002.002.005.004.015.013.046.04c.037.033.084.08.142.142.113.123.26.302.405.54.291.48.573 1.193.573 2.148 0 .954-.282 1.668-.573 2.148a3.402 3.402 0 01-.405.541 2.965 2.965 0 01-.202.196l-.008.007h-.001s-.447.243-.703-.078a.5.5 0 01.075-.7l.002-.002.018-.016c.019-.017.047-.045.085-.085.107-.118.202-.246.284-.382.21-.345.428-.882.428-1.63 0-.748-.218-1.283-.428-1.627a2.402 2.402 0 00-.368-.465l-.018-.016a.5.5 0 01-.079-.701zm1.702-2.08a.5.5 0 10-.623.782l.011.01.052.045c.048.042.115.107.201.195.17.177.4.443.63.794.46.701.92 1.733.92 3.069a5.5 5.5 0 01-.92 3.065c-.23.35-.46.614-.63.79a4.02 4.02 0 01-.252.24l-.011.01h-.001a.5.5 0 00.623.782l.033-.027.075-.065c.063-.057.15-.138.253-.245.277-.288.527-.601.746-.936a6.5 6.5 0 001.083-3.614 6.54 6.54 0 00-1.083-3.618 6.496 6.496 0 00-.745-.938 4.994 4.994 0 00-.328-.311l-.023-.019-.007-.006-.002-.002-.002-.001z" fill="#fff"/></svg>