<svg width="39" height="39" fill="none" xmlns="http://www.w3.org/2000/svg"><path d="M12.675 3.25h13.65c5.2 0 9.425 4.225 9.425 9.425v13.65a9.425 9.425 0 01-9.425 9.425h-13.65c-5.2 0-9.425-4.225-9.425-9.425v-13.65a9.425 9.425 0 019.425-9.425zM12.35 6.5a5.85 5.85 0 00-5.85 5.85v14.3a5.846 5.846 0 005.85 5.85h14.3a5.85 5.85 0 005.85-5.85v-14.3a5.846 5.846 0 00-5.85-5.85h-14.3zm15.681 2.438a2.031 2.031 0 110 4.062 2.031 2.031 0 010-4.063zM19.5 11.374a8.125 8.125 0 110 16.25 8.125 8.125 0 010-16.25zm0 3.25a4.875 4.875 0 100 9.75 4.875 4.875 0 000-9.75z" fill="#F77A40"/></svg>