<svg width="24" height="24" fill="none" xmlns="http://www.w3.org/2000/svg"><path d="M4 19v-9c0-.317.071-.617.213-.9a1.93 1.93 0 01.587-.7l6-4.5c.35-.267.75-.4 1.2-.4.45 0 .85.133 1.2.4l6 4.5c.25.183.446.417.588.7.142.283.213.583.212.9v9c0 .55-.196 1.021-.588 1.413A1.922 1.922 0 0118 21h-3a.965.965 0 01-.712-.288A.973.973 0 0114 20v-5a.965.965 0 00-.288-.712A.973.973 0 0013 14h-2a.965.965 0 00-.712.288A.973.973 0 0010 15v5a.968.968 0 01-.288.713A.964.964 0 019 21H6c-.55 0-1.02-.196-1.412-.587A1.93 1.93 0 014 19z" fill="#fff"/></svg>