<svg width="45" height="51" fill="none" xmlns="http://www.w3.org/2000/svg"><path d="M22.989 8.902a.703.703 0 00-.972 0L5.836 24.359a.702.702 0 00-.217.509l-.003 14.507a2.813 2.813 0 002.813 2.813h8.446a1.406 1.406 0 001.406-1.407V28.828a.703.703 0 01.703-.703h7.032a.703.703 0 01.703.703v11.953a1.406 1.406 0 001.406 1.407h8.443a2.813 2.813 0 002.812-2.813V24.868a.704.704 0 00-.217-.51L22.99 8.903z" fill="#fff"/><path d="M43.146 21.459l-6.574-6.29V5.625a1.406 1.406 0 00-1.406-1.406h-4.219a1.406 1.406 0 00-1.406 1.406v2.813L24.45 3.57c-.477-.482-1.186-.757-1.951-.757-.763 0-1.47.275-1.946.758L1.86 21.457c-.547.527-.615 1.395-.118 1.966a1.406 1.406 0 002.037.093L22.017 6.089a.703.703 0 01.972 0l18.239 17.427a1.406 1.406 0 001.985-.039c.54-.559.495-1.482-.067-2.018z" fill="#fff"/></svg>