<svg width="32" height="32" fill="none" xmlns="http://www.w3.org/2000/svg"><path d="M14.667 12a1.334 1.334 0 112.667 0 1.334 1.334 0 01-2.667 0z" fill="#fff"/><path fill-rule="evenodd" clip-rule="evenodd" d="M13.195 4.068a3.573 3.573 0 015.61 0 .912.912 0 00.82.34 3.574 3.574 0 013.968 3.967.907.907 0 00.339.82 3.574 3.574 0 010 5.61.907.907 0 00-.339.82 3.573 3.573 0 01-3.968 3.968.907.907 0 00-.82.339 3.574 3.574 0 01-5.61 0 .908.908 0 00-.819-.34 3.571 3.571 0 01-3.968-3.967.907.907 0 00-.34-.82 3.573 3.573 0 010-5.61.907.907 0 00.34-.82 3.573 3.573 0 013.968-3.967.907.907 0 00.819-.34zM16 8a4 4 0 100 8 4 4 0 000-8z" fill="#fff"/><path d="M7.193 20.073l-1.766 5.26a1.333 1.333 0 001.685 1.69l2.6-.867 1.525 2.276a1.334 1.334 0 002.363-.299l1.493-4.24a6.186 6.186 0 01-3.353-1.61 6.228 6.228 0 01-4.548-2.208l.001-.002zm9.692 3.823l1.494 4.236a1.332 1.332 0 002.364.299l1.525-2.276 2.6.866a1.333 1.333 0 001.685-1.688l-1.76-5.24a6.227 6.227 0 01-4.533 2.19 6.187 6.187 0 01-3.373 1.613h-.002z" fill="#fff"/></svg>