<svg width="45" height="51" fill="none" xmlns="http://www.w3.org/2000/svg"><g clip-path="url(#clip0_0_559)" fill="#fff"><path d="M36.928 11.616L26.353 1.04A3.544 3.544 0 0023.85 0H10.547A3.516 3.516 0 007.03 3.516v37.968A3.516 3.516 0 0010.547 45h23.906a3.516 3.516 0 003.516-3.516V14.062a3.544 3.544 0 00-1.04-2.446zm-2.475 29.868H10.547V3.516h9.787v10.546a3.514 3.514 0 003.516 3.572h10.603v23.85zm0-27.365H23.85V3.516l10.603 10.546v.057z"/><path d="M14.063 21.094h16.874v3.515H14.063v-3.515zm0 7.031h16.874v3.516H14.063v-3.516z"/></g><defs><clipPath id="clip0_0_559"><path fill="#fff" d="M0 0h45v45H0z"/></clipPath></defs></svg>