<svg width="33" height="35" fill="none" xmlns="http://www.w3.org/2000/svg"><rect width="33" height="35" rx="4" fill="#0056D0"/><path d="M25.195 11.594h-2.133v12.469a1.313 1.313 0 002.625 0V12.085a.492.492 0 00-.492-.492z" fill="#fff"/><path d="M23.684 26.595a2.63 2.63 0 01-1.934-2.532V8.805a.492.492 0 00-.492-.492H7.805a.492.492 0 00-.492.492V24.39a2.297 2.297 0 002.296 2.297h14.063a.047.047 0 00.048-.041.047.047 0 00-.036-.052zM9.937 15.531v-3.937h3.938v3.937H9.937zm9.188 7.875H9.937v-1.312h9.188v1.312zm0-2.625H9.937V19.47h9.188v1.312zm0-2.625H9.937v-1.312h9.188v1.312zm0-2.625h-3.938V14.22h3.938v1.312zm0-2.625h-3.938v-1.312h3.938v1.312z" fill="#fff"/></svg>