<svg width="33" height="44" fill="none" xmlns="http://www.w3.org/2000/svg"><g clip-path="url(#clip0_0_77)"><path d="M7.333 11.625C7.333 9.625 8.978 8 11 8h11c2.022 0 3.667 1.626 3.667 3.625v3.625h3.666c2.023 0 3.667 1.626 3.667 3.625v14.5c0 2-1.644 3.625-3.667 3.625H3.667C1.644 37 0 35.374 0 33.375v-14.5c0-2 1.644-3.625 3.667-3.625h3.666v-3.625zm8.25 16.313a1.82 1.82 0 00-1.833 1.812v4.531h5.5V29.75c0-1.003-.82-1.813-1.833-1.813h-1.834zm-8.25.906V27.03a.914.914 0 00-.916-.906H4.583a.914.914 0 00-.916.906v1.813c0 .498.412.906.916.906h1.834a.914.914 0 00.916-.906zM6.417 22.5a.914.914 0 00.916-.906V19.78a.914.914 0 00-.916-.906H4.583a.914.914 0 00-.916.906v1.813c0 .498.412.906.916.906h1.834zm22.916 6.344V27.03a.914.914 0 00-.916-.906h-1.834a.914.914 0 00-.916.906v1.813c0 .498.412.906.916.906h1.834a.914.914 0 00.916-.906zm-.916-6.344a.914.914 0 00.916-.906V19.78a.914.914 0 00-.916-.906h-1.834a.914.914 0 00-.916.906v1.813c0 .498.412.906.916.906h1.834zm-13.292-8.61v1.813h-1.833a.914.914 0 00-.917.906v.907c0 .498.412.906.917.906h1.833v1.812c0 .499.412.907.917.907h.916a.914.914 0 00.917-.907v-1.812h1.833a.914.914 0 00.917-.906v-.907a.914.914 0 00-.917-.906h-1.833v-1.812a.914.914 0 00-.917-.907h-.916a.914.914 0 00-.917.907z" fill="#FBC02D"/></g><defs><clipPath id="clip0_0_77"><path fill="#fff" transform="translate(0 8)" d="M0 0h33v29H0z"/></clipPath></defs></svg>