<svg width="33" height="45" fill="none" xmlns="http://www.w3.org/2000/svg"><g clip-path="url(#clip0_0_65)"><path d="M33 26.182c0 .682-.24 1.261-.722 1.739a2.397 2.397 0 01-1.753.715c-.877 0-1.564-.366-2.063-1.1l-5.852-8.718h-1.16v3.375l6.368 10.509a1.6 1.6 0 01.232.843c0 .444-.163.827-.49 1.151a1.592 1.592 0 01-1.16.486h-4.95v6.954c0 .784-.284 1.458-.85 2.02a2.79 2.79 0 01-2.038.844h-4.125a2.79 2.79 0 01-2.036-.844c-.567-.562-.851-1.236-.851-2.02v-6.954H6.6a1.59 1.59 0 01-1.16-.486 1.566 1.566 0 01-.49-1.15 1.6 1.6 0 01.232-.844l6.368-10.509v-3.375h-1.16l-5.853 8.719c-.498.733-1.185 1.1-2.062 1.1a2.397 2.397 0 01-1.753-.716A2.357 2.357 0 010 26.18c0-.494.138-.945.412-1.354l6.6-9.819c1.255-1.823 2.768-2.735 4.538-2.735h9.9c1.77 0 3.283.912 4.538 2.736l6.6 9.818c.274.409.412.86.412 1.355zM22.275 5.727c0 1.585-.563 2.936-1.689 4.053-1.125 1.116-2.488 1.675-4.086 1.675-1.598 0-2.96-.559-4.086-1.675-1.126-1.117-1.689-2.467-1.689-4.053 0-1.585.563-2.936 1.689-4.052C13.54.558 14.902 0 16.5 0c1.598 0 2.96.558 4.086 1.675 1.126 1.116 1.689 2.467 1.689 4.052z" fill="#FBC02D"/></g><defs><clipPath id="clip0_0_65"><path fill="#fff" d="M0 0h33v45H0z"/></clipPath></defs></svg>