<svg width="16" height="16" fill="none" xmlns="http://www.w3.org/2000/svg"><path fill-rule="evenodd" clip-rule="evenodd" d="M8.667 12.667v2.666H7.333v-2.666h1.334zm3.104-1.839l1.886 1.886-.943.943-1.886-1.886.943-.943zm-7.542 0l.943.943-1.886 1.886-.943-.943 1.886-1.886zM8 4.355a3.645 3.645 0 11-1.396 7.015A3.638 3.638 0 014.354 8 3.645 3.645 0 018 4.355zm0 1.333a2.312 2.312 0 000 4.624V5.688zm7.333 1.645v1.334h-2.666V7.333h2.666zm-12 0v1.334H.667V7.333h2.666zm-.047-4.99L5.172 4.23l-.943.943-1.886-1.886.943-.943zm9.428 0l.943.943-1.886 1.886-.943-.943 1.886-1.886zM8.667.667v2.666H7.333V.667h1.334z" fill="#fff"/></svg>