<svg width="10" height="10" fill="none" xmlns="http://www.w3.org/2000/svg"><g clip-path="url(#clip0_0_474)"><path d="M2.5.417h.833v.416H2.5V.417zm4.167 0H7.5v.416h-.833V.417zm2.5 1.666v-.416h-1.25V.833H7.5v2.084h-.833V.833H6.25v.834h-2.5V.833h-.417v2.084H2.5V.833h-.417v.834H.833v.416H.417v7.084h.416v.416h8.334v-.416h.416V2.083h-.416zm-.417 1.25v1.25H7.5v-1.25h1.25zm0 3.334H7.5v-1.25h1.25v1.25zm0 2.083H7.5V7.5h1.25v1.25zM1.25 7.5H2.5v1.25H1.25V7.5zm0-2.083H2.5v1.25H1.25v-1.25zm5.417 1.25h-1.25v-1.25h1.25v1.25zm-2.084 0h-1.25v-1.25h1.25v1.25zm-1.25.833h1.25v1.25h-1.25V7.5zm2.084 0h1.25v1.25h-1.25V7.5zm1.25-2.917h-1.25v-1.25h1.25v1.25zm-2.084-1.25v1.25h-1.25v-1.25h1.25zM2.5 4.583H1.25v-1.25H2.5v1.25z" fill="#6B7280"/></g><defs><clipPath id="clip0_0_474"><path fill="#fff" d="M0 0h10v10H0z"/></clipPath></defs></svg>