<svg width="45" height="51" fill="none" xmlns="http://www.w3.org/2000/svg"><g clip-path="url(#clip0_0_591)"><path d="M15.268 8.766a7.129 7.129 0 012.118-5.072 7.236 7.236 0 012.346-1.554 7.285 7.285 0 017.882 1.554 7.167 7.167 0 011.568 2.327 7.119 7.119 0 010 5.49 7.167 7.167 0 01-1.568 2.326 7.236 7.236 0 01-2.346 1.555 7.285 7.285 0 01-7.882-1.555 7.167 7.167 0 01-1.568-2.327 7.12 7.12 0 01-.55-2.744zm-11.28 5.628c1.306-1.784 3.817-2.172 5.615-.877l3.636 2.62a15.835 15.835 0 009.261 2.988c3.325 0 6.57-1.046 9.261-2.988l3.636-2.63a4.047 4.047 0 015.615.877c1.306 1.773.904 4.273-.884 5.568l-3.636 2.63a24.14 24.14 0 01-4.35 2.49v3.616H12.858v-3.616a23.554 23.554 0 01-4.35-2.49l-3.635-2.63a3.961 3.961 0 01-.884-5.568v.01zm9.02 18.407l6.087 5.28-2.612 3.705 2.441 2.42a3.968 3.968 0 010 5.638c-1.567 1.564-4.108 1.554-5.685 0l-4.822-4.78a3.967 3.967 0 01-.462-5.11l5.043-7.153h.01zm12.907 5.28l6.087-5.28 5.043 7.152a3.963 3.963 0 01-.452 5.1l-4.822 4.782c-1.567 1.553-4.108 1.553-5.685 0a3.96 3.96 0 010-5.638l2.44-2.42-2.61-3.706v.01z" fill="#fff"/></g><defs><clipPath id="clip0_0_591"><path fill="#fff" d="M0 0h45v51H0z"/></clipPath></defs></svg>