<svg width="33" height="44" fill="none" xmlns="http://www.w3.org/2000/svg"><path d="M5.5 13.438c0-2 1.644-3.626 3.667-3.626h14.666c2.023 0 3.667 1.626 3.667 3.626v12.687c0 2-1.644 3.625-3.667 3.625H9.167c-2.023 0-3.667-1.626-3.667-3.625V13.437zm15.394 1.11a1.39 1.39 0 00-1.896.43l-3.518 5.568-1.547-2.04a1.383 1.383 0 00-1.925-.271 1.347 1.347 0 00-.275 1.903l2.75 3.625c.27.357.705.56 1.158.544a1.36 1.36 0 001.105-.64l4.584-7.25a1.356 1.356 0 00-.436-1.875v.006zM2.75 25.672v5.89c0 .499.413.907.917.907h25.666a.914.914 0 00.917-.907v-5.89c0-.753.613-1.36 1.375-1.36S33 24.92 33 25.672v5.89c0 2-1.644 3.625-3.667 3.625H3.667C1.644 35.188 0 33.563 0 31.564v-5.891c0-.753.613-1.36 1.375-1.36s1.375.607 1.375 1.36z" fill="#FBC02D"/></svg>