<svg width="44" height="44" fill="none" xmlns="http://www.w3.org/2000/svg"><path d="M18.099 31.542h8.939c.609 2.655 2.939 4.666 5.773 4.666 2.833 0 5.165-2.013 5.772-4.67a1.375 1.375 0 001.292-1.37v-9.334c0-.36-.14-.704-.39-.96l-4.611-4.727a5.041 5.041 0 00-3.608-1.522h-2.769V11a3.208 3.208 0 00-3.208-3.208H7.333A3.208 3.208 0 004.125 11v19.167c0 .76.616 1.375 1.375 1.375h1.056c.609 2.655 2.939 4.666 5.771 4.666 2.833 0 5.165-2.01 5.772-4.666zm-8.947-1.377c0-1.851 1.454-3.292 3.175-3.292 1.724 0 3.178 1.44 3.178 3.29 0 1.852-1.454 3.293-3.178 3.293-1.723 0-3.177-1.44-3.177-3.292m20.482 0c0-1.852 1.454-3.293 3.177-3.293 1.722 0 3.176 1.441 3.176 3.29 0 1.852-1.454 3.294-3.176 3.294-1.723 0-3.177-1.44-3.177-3.291zM17.69 14.666v2.292h2.291a1.375 1.375 0 110 2.75h-2.29V22a1.375 1.375 0 01-2.75 0v-2.292H12.65a1.375 1.375 0 010-2.75h2.292v-2.291a1.375 1.375 0 112.748 0z" fill="#FBC02D"/></svg>