<svg width="24" height="25" fill="none" xmlns="http://www.w3.org/2000/svg"><path d="M12 4.912a9 9 0 00-7.78 13.525c.176.3.51.475.858.475h13.844a.989.989 0 00.857-.475A9 9 0 0012 4.912zm0 2c.46 0 .83.317.947.74-.034.07-.082.131-.107.208l-.288.864a.974.974 0 01-.552.188 1 1 0 010-2zm-6 9a1 1 0 110-2 1 1 0 010 2zm1.5-5a1 1 0 110-2 1 1 0 010 2zm7.712-2.263l-1.917 5.75c.428.367.705.905.705 1.513 0 .366-.106.705-.277 1h-3.446a1.979 1.979 0 01-.277-1c0-1.06.828-1.92 1.872-1.987l1.917-5.75a.75.75 0 011.423.475zm.458 1.788l.485-1.455a.986.986 0 01.345-.07 1 1 0 010 2 .985.985 0 01-.83-.475zM18 15.912a1 1 0 110-2 1 1 0 010 2z" fill="#fff"/></svg>