<svg width="33" height="44" fill="none" xmlns="http://www.w3.org/2000/svg"><path d="M30.086 12.182a.681.681 0 00-1.027-.567c-.924.54-2.362 1.235-3.634 1.235a6.018 6.018 0 01-1.772-.272 8.255 8.255 0 01-1.111-.425c-1.84-.879-3.53-2.43-5.082-3.973a1.375 1.375 0 00-.96-.398c-.36.002-.704.145-.96.398-1.552 1.543-3.242 3.094-5.082 3.973a8.26 8.26 0 01-1.11.425 6.027 6.027 0 01-1.773.272c-1.272 0-2.71-.697-3.634-1.235a.682.682 0 00-1.027.567c-.084 2.114-.106 6.655.946 10.235 1.923 6.55 6.16 10.967 12.25 12.777l.193.056.193-.02h.004l.197.02.192-.056c6.091-1.81 10.328-6.228 12.251-12.777 1.052-3.58 1.029-8.12.946-10.235z" fill="#FBC02D"/></svg>