<svg width="39" height="39" fill="none" xmlns="http://www.w3.org/2000/svg"><path d="M36.498 9.75c-1.251.569-2.6.943-3.998 1.121a6.986 6.986 0 003.055-3.867 14.04 14.04 0 01-4.42 1.706C29.852 7.312 28.048 6.5 26 6.5c-3.818 0-6.938 3.12-6.938 6.971 0 .553.065 1.089.178 1.593a19.816 19.816 0 01-14.365-7.28 6.897 6.897 0 00-.942 3.494c0 2.42 1.219 4.566 3.104 5.784-1.154 0-2.227-.325-3.17-.812v.049a6.976 6.976 0 005.59 6.841 6.824 6.824 0 01-3.135.114 6.955 6.955 0 006.5 4.842 13.845 13.845 0 01-8.662 2.99c-.552 0-1.105-.032-1.657-.097a19.735 19.735 0 0010.692 3.136c12.805 0 19.842-10.628 19.842-19.841 0-.309 0-.602-.017-.91a13.928 13.928 0 003.478-3.624z" fill="#F77A40"/></svg>