<svg width="800" height="800" viewBox="0 0 24 24" fill="none" xmlns="http://www.w3.org/2000/svg"><path fill-rule="evenodd" clip-rule="evenodd" d="M12 2.75a9.25 9.25 0 100 18.5 9.25 9.25 0 000-18.5zM1.25 12C1.25 6.063 6.063 1.25 12 1.25S22.75 6.063 22.75 12 17.937 22.75 12 22.75 1.25 17.937 1.25 12zm8.228-4.75h.044c.214 0 .41 0 .576.011.178.012.373.04.572.122.428.178.77.519.947.947.082.199.11.394.122.572.011.165.011.362.011.576v5.044c0 .214 0 .41-.011.576-.012.178-.04.373-.122.572a1.75 1.75 0 01-.947.947c-.199.082-.394.11-.572.122-.165.011-.362.011-.576.011h-.044c-.214 0-.41 0-.576-.011a1.781 1.781 0 01-.572-.122 1.75 1.75 0 01-.947-.947 1.781 1.781 0 01-.122-.572c-.011-.165-.011-.362-.011-.576V9.478c0-.214 0-.41.011-.576.012-.178.04-.373.122-.572a1.75 1.75 0 01.947-.947c.199-.082.394-.11.572-.122.165-.011.362-.011.576-.011zm-.577 1.52a.25.25 0 00-.13.131.642.642 0 00-.013.103 8.289 8.289 0 00-.008.496v5c0 .243 0 .388.008.496.004.067.01.095.012.103a.25.25 0 00.131.13.63.63 0 00.103.013c.108.008.253.008.496.008s.388 0 .496-.008a.632.632 0 00.103-.012.25.25 0 00.13-.131.632.632 0 00.013-.103c.008-.108.008-.253.008-.496v-5c0-.243 0-.388-.008-.496a.63.63 0 00-.012-.103.25.25 0 00-.131-.13.641.641 0 00-.103-.013A8.289 8.289 0 009.5 8.75c-.243 0-.388 0-.496.008a.642.642 0 00-.103.012zm5.577-1.52h.044c.214 0 .41 0 .576.011.178.012.373.04.572.122.429.178.77.519.947.947.082.199.11.394.122.572.011.165.011.362.011.576v5.044c0 .214 0 .41-.011.576-.012.178-.04.373-.122.572a1.75 1.75 0 01-.947.947c-.199.082-.394.11-.572.122-.165.011-.362.011-.576.011h-.044c-.214 0-.41 0-.576-.011a1.781 1.781 0 01-.572-.122 1.75 1.75 0 01-.947-.947 1.781 1.781 0 01-.122-.572c-.011-.165-.011-.362-.011-.576V9.478c0-.214 0-.41.011-.576.012-.178.04-.373.122-.572a1.75 1.75 0 01.947-.947c.199-.082.394-.11.572-.122.165-.011.362-.011.576-.011zm-.577 1.52a.25.25 0 00-.13.131.63.63 0 00-.013.103 8.258 8.258 0 00-.008.496v5c0 .243 0 .388.008.496.004.067.01.095.012.103a.25.25 0 00.131.13.632.632 0 00.103.013c.108.008.253.008.496.008s.388 0 .496-.008a.632.632 0 00.103-.012.25.25 0 00.13-.131.632.632 0 00.013-.103c.008-.108.008-.253.008-.496v-5c0-.243 0-.388-.008-.496a.63.63 0 00-.012-.103.25.25 0 00-.131-.13.644.644 0 00-.103-.013 8.29 8.29 0 00-.496-.008c-.243 0-.388 0-.496.008a.643.643 0 00-.103.012z" fill="#fff"/></svg>